<svg width="28" height="28" viewBox="0 0 28 28" fill="none" xmlns="http://www.w3.org/2000/svg">
<path d="M7 25.6667C8.933 25.6667 10.5 24.0997 10.5 22.1667C10.5 20.2337 8.933 18.6667 7 18.6667C5.067 18.6667 3.5 20.2337 3.5 22.1667C3.5 24.0997 5.067 25.6667 7 25.6667Z" stroke="#F9AC1A" stroke-width="2.33333" stroke-linecap="round" stroke-linejoin="round"/>
<path d="M10.5 22.1666H20.4167C21.4996 22.1666 22.5382 21.7364 23.304 20.9707C24.0698 20.2049 24.5 19.1663 24.5 18.0833C24.5 17.0003 24.0698 15.9617 23.304 15.196C22.5382 14.4302 21.4996 14 20.4167 14H7.58333C6.50037 14 5.46175 13.5698 4.69598 12.804C3.93021 12.0382 3.5 10.9996 3.5 9.91665C3.5 8.83368 3.93021 7.79507 4.69598 7.02929C5.46175 6.26352 6.50037 5.83331 7.58333 5.83331H17.5" stroke="#F9AC1A" stroke-width="2.33333" stroke-linecap="round" stroke-linejoin="round"/>
<path d="M21 9.33331C22.933 9.33331 24.5 7.76631 24.5 5.83331C24.5 3.90032 22.933 2.33331 21 2.33331C19.067 2.33331 17.5 3.90032 17.5 5.83331C17.5 7.76631 19.067 9.33331 21 9.33331Z" stroke="#F9AC1A" stroke-width="2.33333" stroke-linecap="round" stroke-linejoin="round"/>
</svg>
