<svg width="86" height="28" viewBox="0 0 86 28" fill="none" xmlns="http://www.w3.org/2000/svg">
<path d="M83.5429 24.425C84.4224 21.1108 84.1882 18.3184 82.8464 16.1173C80.2928 11.9363 74.617 11.4012 73.5335 11.3382L71.4105 10.0444L71.2717 9.97988C68.9142 9.21853 60.0361 8.91232 58.7061 8.87011C56.6088 7.69999 54.8666 6.60479 53.3242 5.63594C47.9263 2.24302 44.3591 0 34.1468 0C21.7799 0 11.6869 6.06314 10.3332 6.91189C9.59408 6.97492 8.9409 7.03199 8.32346 7.08729L6.62675 4.49109L8.55608 4.72119C9.32098 4.81216 9.67767 4.35167 9.35279 3.69288C9.02685 3.0341 8.14288 2.42585 7.37641 2.33429L1.08085 1.58394C0.315948 1.49327 -0.040742 1.95346 0.285457 2.61225C0.611393 3.27103 1.49536 3.87928 2.26184 3.97084L3.22887 4.0856L5.37532 7.3706C1.74192 7.76153 1.74192 8.0065 1.74192 8.67004C1.74192 14.1196 1.12606 15.3756 0.997522 15.6173L0 14.7133V20.3673L0.59089 21.2265C0.56776 22.0515 0.807217 22.8089 1.29376 23.4356C2.86587 25.4583 6.47535 25.5169 6.88093 25.5169C8.09898 25.5169 10.6163 24.8135 12.343 24.2823C12.2231 24.0501 12.0993 23.8206 12.0013 23.5712C11.9067 23.3307 11.8428 23.0753 11.7687 22.8229C11.5555 22.0842 11.4107 21.3079 11.4107 20.4907C11.4107 16.3067 14.42 12.9052 18.1173 12.9052C21.8146 12.9052 24.8253 16.3079 24.8253 20.4922C24.8253 22.2961 24.2415 23.9342 23.3078 25.2381C23.1099 25.5136 22.9065 25.7815 22.6778 26.0232C22.4092 26.308 22.1287 26.5758 21.8225 26.8083C29.5324 26.8407 51.305 26.9611 66.1676 27.3348C65.95 27.0901 65.7647 26.8083 65.5796 26.5312C65.4101 26.2766 65.2554 26.0097 65.1168 25.7321C64.5479 24.6191 64.1968 23.3464 64.1968 21.97C64.1968 17.7875 67.2075 14.3854 70.9042 14.3854C74.601 14.3854 77.6117 17.789 77.6117 21.97C77.6117 23.4939 77.2035 24.9057 76.5203 26.0957C76.3613 26.3698 76.1718 26.6175 75.9841 26.8669C75.7795 27.1408 75.5575 27.3976 75.3199 27.6351C76.6891 27.6812 77.8693 27.704 78.8805 27.704C84.0226 27.704 85.0272 27.2022 85.1524 26.2123C85.1939 25.9105 85.288 25.1655 83.5429 24.425Z" fill="white"/>
<path d="M13.713 23.8494C14.6693 25.4485 16.2874 26.5018 18.1174 26.5018C18.1773 26.5018 18.233 26.4833 18.2917 26.4801C18.9688 26.4554 19.6172 26.2987 20.2081 26.0121C20.6218 25.8106 20.9956 25.5365 21.3468 25.2285C22.6037 24.1279 23.4304 22.4254 23.4304 20.4918C23.4304 17.1789 21.0474 14.4819 18.1176 14.4819C15.1879 14.4819 12.8046 17.1789 12.8046 20.4918C12.8046 21.1646 12.9258 21.8032 13.1066 22.4081C13.1823 22.6608 13.2686 22.9055 13.3734 23.1427C13.4788 23.3829 13.5808 23.6291 13.713 23.8494ZM70.9056 27.9796C71.6037 27.9796 72.2653 27.8164 72.8778 27.5393C73.2913 27.3483 73.6818 27.0991 74.0401 26.7976C74.3113 26.5709 74.5632 26.3162 74.7927 26.0368C75.6706 24.9654 76.2205 23.5429 76.2205 21.9696C76.2205 18.6567 73.8361 15.9615 70.9069 15.9615C67.9777 15.9615 65.5931 18.6567 65.5931 21.9696C65.5931 23.4198 66.0694 24.7344 66.829 25.7752C67.0441 26.0692 67.2809 26.3371 67.5409 26.5817C67.8854 26.9052 68.2582 27.1834 68.6693 27.4007C69.3498 27.7611 70.1037 27.9796 70.9056 27.9796Z" fill="white"/>
</svg>
