<svg width="60" height="60" viewBox="0 0 60 60" fill="none" xmlns="http://www.w3.org/2000/svg">
<path d="M6.66748 13.8769V26.1394C6.66561 39.1425 14.8181 51.0188 26.9587 55.6875C28.9167 56.4421 31.0852 56.4421 33.0431 55.6875L34.8619 54.9863C46.0837 50.67 53.3344 39.8175 53.3325 27.3356V13.8769C53.3324 13.3927 53.145 12.9272 52.8094 12.5781C52.4739 12.2289 52.0163 12.0231 51.5325 12.0038C44.7919 11.7413 37.92 9.08626 31.1062 4.11001C30.7849 3.87591 30.3976 3.74979 30 3.74979C29.6024 3.74979 29.2151 3.87591 28.8937 4.11001C22.0781 9.08626 15.2062 11.7413 8.46936 12.0038C7.98486 12.0227 7.52652 12.2285 7.19055 12.5781C6.85459 12.9277 6.66711 13.392 6.66748 13.8769ZM10.4175 15.6319C16.95 15.0131 23.5237 12.4294 30 7.92564C36.4744 12.4294 43.05 15.0131 49.5825 15.6319V27.3338C49.5844 38.25 43.2787 47.73 33.5156 51.4838L31.6969 52.185C30.6048 52.6064 29.3951 52.6064 28.3031 52.185C17.6044 48.0694 10.4156 37.6031 10.4156 26.1413V15.63L10.4175 15.6319Z" fill="white"/>
<path d="M26.16 37.7438C26.5116 38.0953 26.9884 38.2927 27.4856 38.2927C27.9828 38.2927 28.4596 38.0953 28.8112 37.7438L40.4737 26.0831C40.6528 25.9102 40.7957 25.7033 40.8939 25.4745C40.9922 25.2458 41.0439 24.9997 41.0461 24.7508C41.0482 24.5018 41.0008 24.2549 40.9065 24.0245C40.8122 23.794 40.673 23.5847 40.497 23.4086C40.3209 23.2326 40.1116 23.0934 39.8811 22.9991C39.6507 22.9048 39.4038 22.8574 39.1549 22.8595C38.9059 22.8617 38.6599 22.9134 38.4311 23.0117C38.2023 23.11 37.9954 23.2528 37.8225 23.4319L27.4856 33.7688L22.1794 28.4588C22.0053 28.2846 21.7986 28.1463 21.5711 28.052C21.3436 27.9577 21.0997 27.9091 20.8535 27.909C20.6072 27.9089 20.3633 27.9573 20.1357 28.0515C19.9082 28.1457 19.7014 28.2837 19.5272 28.4578C19.353 28.6319 19.2148 28.8386 19.1204 29.0661C19.0261 29.2936 18.9775 29.5374 18.9774 29.7837C18.9773 30.03 19.0258 30.2739 19.1199 30.5014C19.2141 30.729 19.3521 30.9358 19.5262 31.11L26.16 37.7438Z" fill="white"/>
</svg>
