<svg width="60" height="60" viewBox="0 0 60 60" fill="none" xmlns="http://www.w3.org/2000/svg">
<path fill-rule="evenodd" clip-rule="evenodd" d="M29.9516 5.12109C44.3599 5.12109 56.0554 16.8028 56.0554 31.2249C56.0554 45.6332 44.3737 57.3287 29.9516 57.3287C15.5433 57.3287 3.84775 45.647 3.84775 31.2249C3.84775 16.8166 15.5294 5.12109 29.9516 5.12109ZM17.5917 42.3806V23.654H20.8997L21.1211 25.2318C21.5225 24.6367 21.9931 24.1938 22.5606 23.8754C23.1142 23.5571 23.7785 23.391 24.5259 23.391C26.2007 23.391 27.5017 24.0415 28.4291 25.3564C29.3564 26.6574 29.8131 28.3875 29.8131 30.519V30.782C29.8131 32.7889 29.3564 34.3945 28.4291 35.6124C27.5017 36.8304 26.2145 37.4394 24.5536 37.4394C23.8477 37.4394 23.2249 37.301 22.6713 37.038C22.1176 36.7751 21.6471 36.3875 21.2595 35.8754V42.3806H17.5917ZM21.2595 33.4394C21.481 33.827 21.7855 34.1176 22.173 34.3114C22.5606 34.519 23.0311 34.6159 23.5986 34.6159C24.4844 34.6159 25.1211 34.2699 25.5363 33.5778C25.9516 32.8858 26.1453 31.9446 26.1453 30.7682V30.5052C26.1453 29.2318 25.9377 28.1938 25.5086 27.4048C25.0796 26.6159 24.4429 26.2145 23.5709 26.2145C23.0311 26.2145 22.5606 26.3252 22.173 26.5467C21.7855 26.7682 21.481 27.0865 21.2595 27.5156V33.4394ZM30.5744 23.654H34.5052L36.7889 31.5017L36.9412 32.2491H37.0242L39.6125 23.654H43.5294L38.0484 39.1972C37.6609 40.1661 37.1488 40.9827 36.4844 41.6332C35.8201 42.2976 34.8374 42.6297 33.5225 42.6297C33.218 42.6297 32.9273 42.6021 32.6644 42.5467C32.4014 42.5052 32.083 42.4221 31.7093 42.3391L32.1384 39.6816C32.2491 39.6955 32.3599 39.7093 32.4844 39.737C32.609 39.7509 32.7197 39.7647 32.8166 39.7647C33.4118 39.7647 33.8824 39.6124 34.2007 39.3218C34.5329 39.0311 34.782 38.6574 34.9481 38.2145L35.3772 37.1626L30.5744 23.654ZM29.9516 9C41.7439 9 52 19.4325 52 31.2249C52 43.0173 41.7439 53 29.9516 53C18.1592 53 8 43.0173 8 31.2249C8 19.4325 18.1592 9 29.9516 9Z" fill="white"/>
</svg>
