<svg width="60" height="60" viewBox="0 0 60 60" fill="none" xmlns="http://www.w3.org/2000/svg">
<path d="M10.5862 55.7559C11.1737 56.0849 11.8367 56.2552 12.51 56.25H17.985V49.1372C17.985 48.6131 17.8856 48.1134 17.6897 47.6522C17.427 46.9975 16.992 46.4261 16.4308 45.9986C15.8696 45.5711 15.2032 45.3035 14.5022 45.2241C14.343 45.1999 14.1822 45.1876 14.0212 45.1875H12.5109C10.3247 45.1875 8.54718 46.9594 8.54718 49.1372V52.2863C8.54718 53.7263 9.32906 55.0556 10.5872 55.7569L10.5862 55.7559ZM40.1409 56.25V49.1372C40.1409 48.8597 40.1672 48.5888 40.2047 48.3206C40.2094 48.2888 40.2075 48.255 40.2122 48.2231H19.7878C19.7925 48.2541 19.7906 48.2869 19.7953 48.3169C19.8337 48.5859 19.8591 48.8588 19.8591 49.1372V56.25H40.1409ZM36.2034 10.1484C36.6127 10.1477 37.005 9.98479 37.2944 9.69538C37.5838 9.40597 37.7467 9.01367 37.7475 8.60438V5.29501C37.7467 4.88573 37.5838 4.49342 37.2944 4.20401C37.005 3.91461 36.6127 3.75169 36.2034 3.75095H23.7928C23.3835 3.75169 22.9912 3.91461 22.7018 4.20401C22.4124 4.49342 22.2495 4.88573 22.2487 5.29501V8.60438C22.2495 9.01367 22.4124 9.40597 22.7018 9.69538C22.9912 9.98479 23.3835 10.1477 23.7928 10.1484H36.2034ZM25.6884 12.0234H34.3087V14.5556H25.6884V12.0234ZM51.4547 49.1372C51.4547 46.9594 49.6772 45.1875 47.4909 45.1875H45.9806C45.8325 45.187 45.6846 45.1977 45.5381 45.2194C44.8326 45.2936 44.1605 45.5578 43.5934 45.9839C43.0262 46.41 42.5854 46.9821 42.3178 47.6391C42.1167 48.1132 42.014 48.6232 42.0159 49.1381V56.2509H47.4909C48.0947 56.2509 48.6872 56.1141 49.2525 55.8441C49.9146 55.5154 50.4716 55.0081 50.8608 54.3796C51.2499 53.7511 51.4556 53.0264 51.4547 52.2872V49.1381V49.1372ZM40.8975 46.2806C40.9369 46.2103 40.98 46.1438 41.0222 46.0763C41.1028 45.945 41.1881 45.8166 41.2791 45.6928C41.3306 45.6225 41.3812 45.5531 41.4356 45.4856C41.5434 45.3506 41.6587 45.2222 41.7778 45.0984C41.8172 45.0581 41.8519 45.0141 41.8922 44.9747C42.0506 44.8191 42.2194 44.6756 42.3947 44.5397C42.4509 44.4956 42.5109 44.4563 42.5691 44.4141C42.7023 44.3182 42.8396 44.2282 42.9806 44.1441C43.0444 44.1066 43.1072 44.0681 43.1728 44.0334C43.3472 43.9388 43.5253 43.8525 43.7091 43.7756C43.7391 43.7634 43.7672 43.7475 43.7972 43.7363C43.9828 43.6622 44.1731 43.5966 44.3681 43.5422L41.9287 22.0284C41.7557 20.4886 41.0211 19.0667 39.8653 18.0346C38.7096 17.0025 37.2139 16.4328 35.6644 16.4344H24.3366C22.7872 16.4332 21.2917 17.0031 20.136 18.0351C18.9804 19.0671 18.2456 20.4888 18.0722 22.0284L15.6328 43.5422C15.7987 43.5891 15.96 43.6453 16.1203 43.7063C16.2356 43.7503 16.3481 43.8019 16.4606 43.8525C16.5731 43.9041 16.6847 43.9556 16.7925 44.0138C17.0004 44.1276 17.2016 44.2531 17.3953 44.3897C17.4712 44.4431 17.5481 44.4947 17.6212 44.5519C17.7919 44.685 17.9559 44.8266 18.1106 44.9784C18.1491 45.0159 18.1837 45.0581 18.2212 45.0975C18.345 45.2269 18.4641 45.3609 18.5766 45.5006C18.73 45.6967 18.8721 45.9014 19.0022 46.1138C19.035 46.1681 19.0697 46.2197 19.1006 46.275C19.1147 46.3003 19.1316 46.3228 19.1456 46.3481H40.86C40.8722 46.3256 40.8881 46.305 40.9003 46.2816L40.8975 46.2806ZM25.6959 41.2791C25.6959 41.5277 25.5972 41.7662 25.4213 41.942C25.2455 42.1178 25.0071 42.2166 24.7584 42.2166C24.5098 42.2166 24.2713 42.1178 24.0955 41.942C23.9197 41.7662 23.8209 41.5277 23.8209 41.2791V24.7322C23.8209 24.4836 23.9197 24.2451 24.0955 24.0693C24.2713 23.8935 24.5098 23.7947 24.7584 23.7947C25.0071 23.7947 25.2455 23.8935 25.4213 24.0693C25.5972 24.2451 25.6959 24.4836 25.6959 24.7322V41.2791ZM36.1762 41.2791C36.1762 41.5277 36.0775 41.7662 35.9017 41.942C35.7258 42.1178 35.4874 42.2166 35.2387 42.2166C34.9901 42.2166 34.7516 42.1178 34.5758 41.942C34.4 41.7662 34.3012 41.5277 34.3012 41.2791V24.7322C34.3012 24.4836 34.4 24.2451 34.5758 24.0693C34.7516 23.8935 34.9901 23.7947 35.2387 23.7947C35.4874 23.7947 35.7258 23.8935 35.9017 24.0693C36.0775 24.2451 36.1762 24.4836 36.1762 24.7322V41.2791Z" fill="white"/>
</svg>
