<svg width="120" height="120" viewBox="0 0 120 120" fill="none" xmlns="http://www.w3.org/2000/svg">
<path d="M93.9844 93.9844C89.1396 93.9844 85.0184 97.1297 83.5474 101.484H18.5156C12.183 101.484 7.03125 96.3326 7.03125 90C7.03125 83.6674 12.183 78.5156 18.5156 78.5156H41.0156C51.2252 78.5156 59.5312 70.2096 59.5312 60C59.5312 49.7904 51.2252 41.4844 41.0156 41.4844H21.4526C20.355 38.2345 17.7811 35.6606 14.5312 34.563V26.0156H33.5156C35.4572 26.0156 37.0312 24.4416 37.0312 22.5V7.5C37.0312 5.55844 35.4572 3.98438 33.5156 3.98438H11.0156C9.07406 3.98438 7.5 5.55844 7.5 7.5V34.563C3.14531 36.034 0 40.1552 0 45C0 51.0741 4.94156 56.0156 11.0156 56.0156C15.8604 56.0156 19.9816 52.8703 21.4526 48.5156H41.0156C47.3482 48.5156 52.5 53.6674 52.5 60C52.5 66.3326 47.3482 71.4844 41.0156 71.4844H18.5156C8.30602 71.4844 0 79.7904 0 90C0 100.21 8.30602 108.516 18.5156 108.516H83.5474C85.0184 112.87 89.1396 116.016 93.9844 116.016C100.058 116.016 105 111.074 105 105C105 98.9259 100.058 93.9844 93.9844 93.9844ZM14.5312 11.0156H30V18.9844H14.5312V11.0156ZM11.0156 48.9844C8.81859 48.9844 7.03125 47.197 7.03125 45C7.03125 42.803 8.81859 41.0156 11.0156 41.0156C13.2127 41.0156 15 42.803 15 45C15 47.197 13.2127 48.9844 11.0156 48.9844ZM93.9844 108.984C91.7873 108.984 90 107.197 90 105C90 102.803 91.7873 101.016 93.9844 101.016C96.1814 101.016 97.9688 102.803 97.9688 105C97.9688 107.197 96.1814 108.984 93.9844 108.984ZM93.9844 26.4844C87.9103 26.4844 82.9688 31.4259 82.9688 37.5C82.9688 43.5741 87.9103 48.5156 93.9844 48.5156C100.058 48.5156 105 43.5741 105 37.5C105 31.4259 100.058 26.4844 93.9844 26.4844ZM93.9844 41.4844C91.7873 41.4844 90 39.697 90 37.5C90 35.303 91.7873 33.5156 93.9844 33.5156C96.1814 33.5156 97.9688 35.303 97.9688 37.5C97.9688 39.697 96.1814 41.4844 93.9844 41.4844Z" fill="#F9AC1A"/>
<path d="M93.9844 11.4844C79.6392 11.4844 67.9688 23.1548 67.9688 37.5C67.9688 45.2463 71.3435 52.4634 77.2561 57.4254L90.8522 84.0965C91.1465 84.6742 91.5949 85.1591 92.1476 85.4979C92.7004 85.8366 93.3361 86.0159 93.9844 86.0159C94.6327 86.0159 95.2683 85.8366 95.8211 85.4979C96.3739 85.1591 96.8222 84.6742 97.1166 84.0965L110.713 57.4254C116.625 52.4634 120 45.2463 120 37.5C120 23.1548 108.33 11.4844 93.9844 11.4844ZM105.738 52.4093C105.34 52.7235 105.015 53.1201 104.785 53.5718L93.9844 74.759L83.1839 53.5718C82.9536 53.1201 82.6284 52.7235 82.2305 52.4093C77.6353 48.7809 75 43.3467 75 37.5C75 27.0319 83.5162 18.5156 93.9844 18.5156C104.452 18.5156 112.969 27.0319 112.969 37.5C112.969 43.3467 110.333 48.7809 105.738 52.4093Z" fill="#F9AC1A"/>
</svg>
