<svg width="120" height="120" viewBox="0 0 120 120" fill="none" xmlns="http://www.w3.org/2000/svg">
<path fill-rule="evenodd" clip-rule="evenodd" d="M61.2941 94.0576H29.883C29.4462 94.0576 29.0273 93.8841 28.7184 93.5752C28.4095 93.2663 28.236 92.8474 28.236 92.4106V70.4936C28.236 66.0334 30.0078 61.7558 33.1617 58.6019C36.3156 55.448 40.5931 53.6762 45.0534 53.6762H51.4682C51.8936 53.6762 52.3026 53.8409 52.6094 54.1355L59.9976 61.2339L67.3527 54.1379C67.6598 53.8418 68.0698 53.6763 68.4965 53.6762H74.9466C79.4068 53.6762 83.6844 55.448 86.8383 58.6019C89.9922 61.7558 91.764 66.0334 91.764 70.4936V76.9995C91.764 77.9084 91.0259 78.6466 90.1169 78.6466C89.2078 78.6466 88.4699 77.9084 88.4699 76.9995V70.4936C88.47 68.7177 88.1203 66.9591 87.4407 65.3183C86.7612 63.6776 85.765 62.1867 84.5093 60.9309C83.2535 59.6752 81.7626 58.679 80.1219 57.9995C78.4811 57.3199 76.7225 56.9702 74.9466 56.9703H69.1614L61.1435 64.7056C60.8369 65.0014 60.4276 65.1668 60.0016 65.1672C59.5756 65.1677 59.166 65.0031 58.8588 64.708L50.8054 56.9703H45.0534C43.2775 56.9702 41.5189 57.3199 39.8781 57.9995C38.2373 58.679 36.7465 59.6752 35.4907 60.9309C34.2349 62.1867 33.2388 63.6776 32.5592 65.3183C31.8797 66.9591 31.53 68.7177 31.5301 70.4936V90.7635H42.9981V73.867C42.9981 72.9579 43.7362 72.22 44.6452 72.22C45.5541 72.22 46.2922 72.9579 46.2922 73.867V90.7635H61.2941C62.203 90.7635 62.9412 91.5016 62.9412 92.4106C62.9412 93.3195 62.203 94.0576 61.2941 94.0576ZM73.7078 73.867C73.7078 72.9579 74.4459 72.22 75.3548 72.22C76.2638 72.22 77.0019 72.9579 77.0019 73.867V77.0539C77.0019 77.9628 76.2638 78.7009 75.3548 78.7009C74.4459 78.7009 73.7078 77.9628 73.7078 77.0539V73.867ZM60 14.5456C69.2499 14.5456 76.7595 22.0553 76.7595 31.3051C76.7595 40.555 69.2499 48.0647 60 48.0647C50.7501 48.0647 43.2405 40.555 43.2405 31.3051C43.2405 22.0553 50.7501 14.5456 60 14.5456ZM60 17.8397C52.5682 17.8397 46.5346 23.8734 46.5346 31.3051C46.5346 38.7369 52.5682 44.7706 60 44.7706C67.4318 44.7706 73.4654 38.7369 73.4654 31.3051C73.4654 23.8734 67.4318 17.8397 60 17.8397ZM79.4367 5.17644C78.5278 5.17644 77.7896 4.43832 77.7896 3.52938C77.7896 2.62044 78.5278 1.88232 79.4367 1.88232H110.772C111.209 1.88232 111.628 2.05585 111.937 2.36474C112.246 2.67362 112.419 3.09256 112.419 3.52938V31.9635C112.419 32.8727 111.681 33.6106 110.772 33.6106C109.863 33.6106 109.125 32.8727 109.125 31.9635V5.17644H79.4367ZM10.8748 31.9635C10.8748 32.8727 10.1369 33.6106 9.22775 33.6106C8.31881 33.6106 7.58069 32.8727 7.58069 31.9635V3.52938C7.58069 3.09256 7.75422 2.67362 8.0631 2.36474C8.37198 2.05585 8.79092 1.88232 9.22775 1.88232H40.5633C41.4722 1.88232 42.2103 2.62044 42.2103 3.52938C42.2103 4.43832 41.4722 5.17644 40.5633 5.17644H10.8748V31.9635ZM40.5633 103.427C41.4722 103.427 42.2103 104.165 42.2103 105.074C42.2103 105.983 41.4722 106.721 40.5633 106.721H9.22775C9.01145 106.721 8.79728 106.678 8.59745 106.596C8.39762 106.513 8.21604 106.391 8.0631 106.238C7.91016 106.086 7.78884 105.904 7.70606 105.704C7.62329 105.504 7.58069 105.29 7.58069 105.074V76.6395C7.58069 75.7306 8.31881 74.9924 9.22775 74.9924C10.1369 74.9924 10.8748 75.7306 10.8748 76.6395V103.427H40.5633ZM109.125 76.6395C109.125 75.7306 109.863 74.9924 110.772 74.9924C111.681 74.9924 112.419 75.7306 112.419 76.6395V105.074C112.419 105.29 112.377 105.504 112.294 105.704C112.211 105.904 112.09 106.086 111.937 106.238C111.784 106.391 111.602 106.513 111.403 106.596C111.203 106.678 110.989 106.721 110.772 106.721H105.607C104.698 106.721 103.96 105.983 103.96 105.074C103.96 104.165 104.698 103.427 105.607 103.427H109.125V76.6395ZM83.1132 79.2233C93.8463 79.2233 102.56 87.9371 102.56 98.6703C102.56 109.404 93.8463 118.118 83.1132 118.118C72.38 118.118 63.6659 109.404 63.6659 98.6703C63.6659 87.9371 72.38 79.2233 83.1132 79.2233ZM83.1132 82.5174C74.1981 82.5174 66.96 89.7553 66.96 98.6703C66.96 107.586 74.1981 114.824 83.1132 114.824C92.0282 114.824 99.2661 107.586 99.2661 98.6703C99.2661 89.7553 92.0282 82.5174 83.1132 82.5174ZM81.2671 98.048L88.1007 91.2143C89.8431 89.472 92.672 89.472 94.4141 91.2143C96.1562 92.9564 96.1562 95.7854 94.4141 97.5277L84.4238 107.518C82.6802 109.261 79.8536 109.261 78.1103 107.518L71.8122 101.22C70.0699 99.4776 70.0699 96.6487 71.8122 94.9066C73.5543 93.1644 76.3833 93.1644 78.1254 94.9066L81.2671 98.048ZM74.1414 98.8906L80.4395 105.189C80.5482 105.298 80.6772 105.384 80.8191 105.443C80.9611 105.501 81.1133 105.532 81.2669 105.532C81.4206 105.532 81.5728 105.501 81.7147 105.443C81.8567 105.384 81.9857 105.298 82.0943 105.189L92.0849 95.1983C92.3041 94.9788 92.4273 94.6812 92.4273 94.3709C92.4273 94.0606 92.3041 93.7631 92.0849 93.5435C91.8654 93.3243 91.5678 93.2012 91.2575 93.2012C90.9473 93.2012 90.6497 93.3243 90.4301 93.5435L82.7423 101.231C82.351 101.623 81.8203 101.842 81.2669 101.842C80.7135 101.842 80.1828 101.623 79.7915 101.231L75.7962 97.236C75.5752 97.0247 75.2802 96.9083 74.9744 96.9117C74.6686 96.9151 74.3763 97.0381 74.16 97.2543C73.9438 97.4706 73.8207 97.7629 73.8172 98.0687C73.8138 98.3745 73.9301 98.6695 74.1414 98.8906Z" fill="url(#paint0_linear_29_140)"/>
<defs>
<linearGradient id="paint0_linear_29_140" x1="120" y1="-3.07516e-05" x2="-7.06325e-06" y2="120" gradientUnits="userSpaceOnUse">
<stop stop-color="#F9AC1A"/>
<stop offset="1" stop-color="#FFCF4C"/>
</linearGradient>
</defs>
</svg>
