<svg width="120" height="120" viewBox="0 0 120 120" fill="none" xmlns="http://www.w3.org/2000/svg">
<path d="M77.0549 28.8218C74.208 26.1469 71.4264 25.6925 70.0057 25.6617C69.9283 25.6571 69.8514 25.65 69.773 25.65H50.2265C50.1456 25.65 50.0667 25.6571 49.9867 25.6622C48.5645 25.6945 45.7869 26.1504 42.9446 28.8218C41.15 30.508 39.6484 32.7893 38.4382 35.6509H31.8362V72.0785H35.5467C35.9236 72.723 36.4714 73.2506 37.1296 73.6029C37.7878 73.9553 38.5307 74.1186 39.276 74.0749C39.9413 74.0363 40.5868 73.8339 41.155 73.4856C41.7232 73.1373 42.1965 72.6539 42.5327 72.0785H46.3172V113.745C46.3172 117.2 49.1185 119.999 52.5721 119.999C56.0266 119.999 58.828 117.2 58.828 113.745V72.0785H61.173V113.745C61.173 117.2 63.9744 119.999 67.4279 119.999C70.8825 119.999 73.6839 117.2 73.6839 113.745V72.0785H77.4678C77.8245 72.6891 78.3352 73.1956 78.9488 73.5471C79.5625 73.8987 80.2576 74.0831 80.9648 74.082C81.6706 74.0812 82.3639 73.8959 82.9759 73.5444C83.5879 73.193 84.0974 72.6876 84.4538 72.0785H88.1648V35.6509H81.5623C80.3511 32.7898 78.8495 30.508 77.0549 28.8218ZM86.1401 70.0547H33.8599V37.6747H86.1401V70.0547Z" fill="#F9AC1A"/>
<path d="M59.9992 22.7672C66.2862 22.7672 71.3828 17.6706 71.3828 11.3836C71.3828 5.09662 66.2862 0 59.9992 0C53.7122 0 48.6156 5.09662 48.6156 11.3836C48.6156 17.6706 53.7122 22.7672 59.9992 22.7672Z" fill="#F9AC1A"/>
</svg>
