<svg width="40" height="40" viewBox="0 0 40 40" fill="none" xmlns="http://www.w3.org/2000/svg">
<g clip-path="url(#clip0_13_87)">
<path d="M20 40C8.956 40 0 31.044 0 20C0 8.956 8.956 0 20 0C31.044 0 40 8.956 40 20C40 31.044 31.044 40 20 40Z" fill="url(#paint0_linear_13_87)"/>
<path d="M20 8.80802C23.644 8.80802 24.076 8.82002 25.516 8.88802C26.848 8.94802 27.572 9.17202 28.052 9.36002C28.688 9.60802 29.144 9.90402 29.62 10.38C30.096 10.856 30.392 11.312 30.64 11.948C30.828 12.428 31.048 13.152 31.112 14.484C31.176 15.924 31.192 16.356 31.192 20C31.192 23.644 31.18 24.076 31.112 25.516C31.052 26.848 30.828 27.572 30.64 28.052C30.392 28.688 30.096 29.144 29.62 29.62C29.144 30.096 28.688 30.392 28.052 30.64C27.572 30.828 26.848 31.048 25.516 31.112C24.076 31.176 23.644 31.192 20 31.192C16.356 31.192 15.924 31.18 14.484 31.112C13.152 31.052 12.428 30.828 11.948 30.64C11.312 30.392 10.856 30.096 10.38 29.62C9.90399 29.144 9.60799 28.688 9.35999 28.052C9.17199 27.572 8.95199 26.848 8.88799 25.516C8.82399 24.076 8.80799 23.644 8.80799 20C8.80799 16.356 8.81999 15.924 8.88799 14.484C8.94799 13.152 9.17199 12.428 9.35999 11.948C9.60799 11.312 9.90399 10.856 10.38 10.38C10.856 9.90402 11.312 9.60802 11.948 9.36002C12.428 9.17202 13.152 8.95202 14.484 8.88802C15.924 8.82002 16.356 8.80802 20 8.80802ZM20 6.34802C16.292 6.34802 15.828 6.36402 14.372 6.43202C12.92 6.50002 11.928 6.72802 11.056 7.06802C10.16 7.41202 9.39599 7.88002 8.63999 8.64002C7.87999 9.40002 7.41599 10.16 7.06399 11.06C6.72799 11.928 6.49599 12.92 6.42799 14.376C6.35999 15.832 6.34399 16.296 6.34399 20.004C6.34399 23.712 6.35999 24.176 6.42799 25.632C6.49599 27.084 6.72399 28.076 7.06399 28.948C7.41199 29.84 7.87999 30.604 8.63999 31.36C9.39999 32.12 10.16 32.584 11.06 32.936C11.928 33.272 12.92 33.504 14.376 33.572C15.832 33.64 16.296 33.656 20.004 33.656C23.712 33.656 24.176 33.64 25.632 33.572C27.084 33.504 28.076 33.276 28.948 32.936C29.84 32.588 30.604 32.12 31.36 31.36C32.12 30.6 32.584 29.84 32.936 28.94C33.272 28.072 33.504 27.08 33.572 25.624C33.64 24.168 33.656 23.704 33.656 19.996C33.656 16.288 33.64 15.824 33.572 14.368C33.504 12.916 33.276 11.924 32.936 11.052C32.588 10.16 32.12 9.39602 31.36 8.64002C30.6 7.88002 29.84 7.41602 28.94 7.06402C28.072 6.72802 27.08 6.49602 25.624 6.42802C24.172 6.36402 23.708 6.34802 20 6.34802Z" fill="white"/>
<path d="M20 12.988C16.128 12.988 12.988 16.128 12.988 20C12.988 23.872 16.128 27.012 20 27.012C23.872 27.012 27.012 23.872 27.012 20C27.012 16.128 23.872 12.988 20 12.988ZM20 24.552C17.488 24.552 15.448 22.516 15.448 20C15.448 17.484 17.488 15.448 20 15.448C22.512 15.448 24.552 17.484 24.552 20C24.552 22.516 22.512 24.552 20 24.552Z" fill="white"/>
<path d="M27.2879 14.352C28.1937 14.352 28.9279 13.6178 28.9279 12.712C28.9279 11.8063 28.1937 11.072 27.2879 11.072C26.3822 11.072 25.6479 11.8063 25.6479 12.712C25.6479 13.6178 26.3822 14.352 27.2879 14.352Z" fill="white"/>
</g>
<defs>
<linearGradient id="paint0_linear_13_87" x1="5.85788" y1="34.1422" x2="34.1422" y2="5.85788" gradientUnits="userSpaceOnUse">
<stop stop-color="#FFD521"/>
<stop offset="0.055" stop-color="#FFD020"/>
<stop offset="0.124" stop-color="#FEC01E"/>
<stop offset="0.2" stop-color="#FCA71B"/>
<stop offset="0.282" stop-color="#FA8316"/>
<stop offset="0.368" stop-color="#F85510"/>
<stop offset="0.456" stop-color="#F51E09"/>
<stop offset="0.5" stop-color="#F30005"/>
<stop offset="0.503" stop-color="#F20007"/>
<stop offset="0.597" stop-color="#E1003B"/>
<stop offset="0.688" stop-color="#D30067"/>
<stop offset="0.776" stop-color="#C70088"/>
<stop offset="0.859" stop-color="#BF00A0"/>
<stop offset="0.936" stop-color="#BB00AF"/>
<stop offset="1" stop-color="#B900B4"/>
</linearGradient>
<clipPath id="clip0_13_87">
<rect width="40" height="40" fill="white"/>
</clipPath>
</defs>
</svg>
