<svg width="20" height="20" viewBox="0 0 20 20" fill="none" xmlns="http://www.w3.org/2000/svg">
<path d="M10 5V10L13.3333 11.6667" stroke="#26A65B" stroke-width="2" stroke-linecap="round" stroke-linejoin="round"/>
<path d="M13.3334 17.6333C11.8356 18.2877 10.1783 18.4871 8.56801 18.2067C6.95769 17.9263 5.46538 17.1786 4.27681 16.0565C3.08824 14.9345 2.25589 13.4876 1.88337 11.8961C1.51085 10.3046 1.6146 8.63862 2.18171 7.10561C2.74882 5.57259 3.75425 4.24021 5.07285 3.27428C6.39146 2.30836 7.96502 1.75154 9.59768 1.67314C11.2303 1.59474 12.85 1.99821 14.2551 2.83334C15.6602 3.66847 16.7887 4.89839 17.5001 6.37" stroke="#26A65B" stroke-width="2" stroke-linecap="round" stroke-linejoin="round"/>
<path d="M16.6665 9.58333V14.5833" stroke="#26A65B" stroke-width="2" stroke-linecap="round" stroke-linejoin="round"/>
<path d="M16.6665 17.9167H16.6765" stroke="#26A65B" stroke-width="2" stroke-linecap="round" stroke-linejoin="round"/>
</svg>
