<svg width="30" height="30" viewBox="0 0 30 30" fill="none" xmlns="http://www.w3.org/2000/svg">
<g clip-path="url(#clip0_12_41)">
<path d="M29.9625 5.85481L28.8759 10.0452C28.8375 10.1943 28.77 10.3343 28.6774 10.4573C28.5847 10.5802 28.4688 10.6837 28.3361 10.7617C28.2034 10.8398 28.0566 10.8909 27.9041 10.9121C27.7516 10.9333 27.5965 10.9243 27.4475 10.8854L23.1328 9.76671C22.983 9.72883 22.8422 9.66172 22.7185 9.56923C22.5948 9.47674 22.4905 9.36069 22.4118 9.22777C22.3331 9.09485 22.2814 8.94767 22.2598 8.79471C22.2382 8.64175 22.247 8.48602 22.2858 8.33648C22.3245 8.18694 22.3925 8.04654 22.4857 7.92337C22.579 7.80019 22.6956 7.69666 22.829 7.61873C22.9624 7.54081 23.1099 7.49003 23.263 7.46931C23.4161 7.44859 23.5717 7.45835 23.721 7.49802L25.2282 7.88878C22.1149 3.40682 16.3306 1.43257 11.0695 3.18223C9.24718 3.78153 7.58917 4.79642 6.22651 6.14671C4.86384 7.49699 3.83387 9.14568 3.21798 10.9625C3.16796 11.108 3.08977 11.2423 2.98786 11.3576C2.88596 11.473 2.76234 11.5671 2.62405 11.6346C2.48577 11.7022 2.33554 11.7418 2.18194 11.7513C2.02833 11.7608 1.87436 11.7399 1.72882 11.6899C1.58327 11.6399 1.449 11.5617 1.33368 11.4598C1.21835 11.3579 1.12423 11.2343 1.05668 11.096C0.989131 10.9577 0.94948 10.8075 0.93999 10.6539C0.930501 10.5003 0.951359 10.3463 1.00137 10.2008C1.73079 8.08495 2.92647 6.16014 4.50001 4.56868C6.13022 2.92075 8.12836 1.68336 10.3301 0.958308C13.4057 -0.0642432 16.7319 -0.0491098 19.798 1.00139C22.8642 2.05188 25.5008 4.07967 27.3031 6.77345L27.6938 5.26688C27.7718 4.96603 27.9661 4.70848 28.234 4.5509C28.5019 4.39332 28.8214 4.34862 29.1222 4.42662C29.4231 4.50462 29.6806 4.69894 29.8382 4.96684C29.9958 5.23473 30.0405 5.55425 29.9625 5.85511V5.85481ZM28.2715 18.31C28.1259 18.26 27.972 18.2391 27.8184 18.2486C27.6648 18.2581 27.5146 18.2978 27.3763 18.3654C27.238 18.4329 27.1144 18.5271 27.0125 18.6424C26.9106 18.7577 26.8324 18.892 26.7824 19.0375C26.1665 20.8543 25.1366 22.503 23.7739 23.8533C22.4113 25.2036 20.7532 26.2185 18.9309 26.8178C13.6699 28.5674 7.88555 26.5932 4.77241 22.1112L6.27956 22.502C6.42924 22.5428 6.58554 22.5535 6.73938 22.5334C6.89322 22.5133 7.04155 22.4629 7.17575 22.3851C7.30996 22.3072 7.42737 22.2035 7.52118 22.08C7.61498 21.9564 7.68332 21.8154 7.72222 21.6652C7.76113 21.515 7.76982 21.3586 7.7478 21.205C7.72577 21.0515 7.67348 20.9038 7.59394 20.7706C7.5144 20.6374 7.4092 20.5213 7.28445 20.4291C7.15969 20.3368 7.01787 20.2703 6.86719 20.2333L2.55235 19.1146C2.2515 19.0366 1.93199 19.0813 1.66411 19.2389C1.39622 19.3964 1.2019 19.654 1.12389 19.9548L0.0375073 24.1452C-0.00111591 24.2942 -0.0100195 24.4493 0.011305 24.6017C0.0326294 24.7541 0.0837642 24.9008 0.16179 25.0335C0.239816 25.1661 0.343204 25.2821 0.466052 25.3748C0.588901 25.4675 0.728803 25.5351 0.877771 25.5737C1.02674 25.6123 1.18186 25.6212 1.33427 25.5999C1.48667 25.5786 1.63339 25.5274 1.76604 25.4494C1.89869 25.3714 2.01467 25.268 2.10736 25.1451C2.20005 25.0223 2.26763 24.8824 2.30626 24.7334L2.6969 23.2269C4.49998 25.9198 7.13667 27.9469 10.2026 28.9973C13.2685 30.0476 16.5943 30.0633 19.6699 29.0418C21.8716 28.3167 23.8698 27.0793 25.5 25.4313C27.0736 23.8398 28.2693 21.9149 28.9986 19.799C29.0996 19.5051 29.0798 19.1832 28.9434 18.9039C28.807 18.6247 28.5654 18.411 28.2715 18.31Z" fill="#D2D2D2"/>
</g>
<defs>
<clipPath id="clip0_12_41">
<rect width="30" height="30" fill="white"/>
</clipPath>
</defs>
</svg>
