<svg width="35" height="35" viewBox="0 0 35 35" fill="none" xmlns="http://www.w3.org/2000/svg">
<path d="M4.85223 23.6753C5.89141 22.9399 8.32729 22.9693 9.50129 23.17C13.3358 23.8252 15.8527 26.9416 19.9528 27.4612C21.9364 27.7126 23.9079 27.36 25.7509 26.627C25.9603 26.5438 26.2666 26.3514 26.4981 26.3676C26.1997 26.5092 25.9209 26.6975 25.6291 26.8537C22.7852 28.3758 19.6163 28.4381 16.6521 27.1482C13.1211 25.6117 10.9799 23.1882 6.58336 23.4946C6.0027 23.5351 5.42977 23.6219 4.85223 23.6753Z" fill="black"/>
<path d="M4.85221 23.6753C4.58268 23.6081 4.33051 23.2574 4.56904 23.0188C4.77325 22.8146 5.1774 22.7075 5.44662 22.6037C7.70889 21.7316 10.2632 21.6063 12.5989 22.2522C12.8466 22.3207 13.4477 22.58 13.6606 22.5652C14.2541 22.7556 15.2848 23.4935 15.8191 23.8581C17.711 25.1488 20.3908 26.7462 22.8083 26.3676C23.0093 26.6016 26.5284 25.866 26.9962 25.761C26.8519 25.9842 26.6317 26.1406 26.4981 26.3676C26.2665 26.3514 25.9603 26.5438 25.7509 26.627C23.9079 27.36 21.9364 27.7126 19.9528 27.4612C15.8527 26.9415 13.3358 23.8252 9.50127 23.17C8.32727 22.9693 5.89139 22.9399 4.85221 23.6753Z" fill="#FECA04"/>
<path d="M3.11212 9.15569C3.89248 10.1619 4.76621 11.4554 6.21168 10.939C7.9228 10.3278 10.1134 7.25974 12.1433 9.31626C12.3867 9.5629 12.5608 9.92692 12.9144 10.0354C14.4049 10.493 14.5761 5.84637 18.2549 7.08023C19.5859 7.52661 21.7082 8.73555 22.3448 10.0118C22.651 10.5813 22.6905 11.4555 22.0296 11.7933C20.8977 11.9091 18.2944 10.0714 17.0678 10.3099C16.1076 10.4967 15.8666 12.3012 13.8813 12.7236C12.1234 13.0978 11.9105 12.1656 10.8573 11.48C9.84971 11.6925 8.75596 12.8923 7.19737 13.1365C5.13069 13.4604 3.39526 11.0517 3.11212 9.15569ZM5.87255 11.7933C6.47045 12.2438 8.5206 11.0499 9.02714 10.7144C9.43949 10.4414 9.85436 10.1238 10.3457 10.0141C11.6126 9.7312 12.3084 11.4493 13.6087 11.2537C15.2395 11.0084 15.4025 8.67915 17.3749 8.646C18.3427 8.62973 21.3139 9.58915 21.4122 9.56666C20.33 8.85402 18.0232 7.39871 16.6962 7.67858C15.0884 8.01764 14.9534 10.4769 13.4018 10.8245C11.5622 11.2368 11.8556 8.37632 9.33086 9.8345C8.23253 10.4689 7.17119 11.6241 5.87255 11.7933Z" fill="black"/>
<path d="M5.87253 11.7933C6.47043 12.2438 8.52058 11.0499 9.02712 10.7144C9.43947 10.4414 9.85434 10.1238 10.3456 10.0141C11.6126 9.73122 12.3084 11.4493 13.6086 11.2537C15.2395 11.0085 15.4025 8.67917 17.3749 8.64602C18.3427 8.62975 21.3139 9.58917 21.4121 9.56668C21.661 9.70299 22.0707 9.95209 22.3448 10.0118C22.6509 10.5813 22.6905 11.4555 22.0296 11.7933C21.8211 11.4795 20.0543 10.5357 19.6742 10.3325C15.1778 7.929 16.3367 11.4622 13.5957 11.98C12.4344 12.1994 12.1447 11.4025 11.3418 10.8606C10.6451 10.3903 9.80082 11.0932 9.21668 11.4459C7.71148 12.3546 6.88085 12.8308 5.37445 11.7933C5.54046 11.7919 5.70655 11.7893 5.87253 11.7933Z" fill="#FECA04"/>
<path d="M20.8334 14.7057C21.9356 13.3235 22.8421 12.0267 23.8102 10.5359C24.1194 10.0598 24.6085 8.92375 25.0627 8.86394C25.3802 8.8221 25.5488 9.34594 25.6684 9.5638C26.5583 11.1854 27.3852 12.6422 28.4301 14.1896C30.2153 16.8336 30.9973 17.9056 30.9595 21.31C31.4238 21.5297 31.7916 21.3261 31.9232 21.6984C32.0683 22.109 31.3499 22.5485 31.0984 22.7581C28.8736 24.6123 25.754 26.1631 22.8083 26.3676C20.3908 26.7462 17.711 25.1488 15.8191 23.858C15.2848 23.4935 14.2541 22.7556 13.6606 22.5651C10.8587 21.1368 7.22756 21.2193 4.3393 22.2961C3.95889 22.4379 3.29978 22.8542 3.1215 22.2148C2.9968 21.7676 3.66988 21.6298 3.96409 21.5261C4.62594 20.1829 6.41943 17.9154 7.85107 17.4223C10.0371 16.6693 9.48158 17.2704 10.9596 15.1203C11.1799 14.7999 12.2553 13.2666 12.756 13.5187C13.1002 13.692 13.4619 14.66 13.6783 15.0213C14.3684 16.1737 15.3306 15.8891 15.876 17.4268C16.9238 15.9228 17.8919 14.5792 18.8466 12.9762C18.9811 12.7504 19.2261 12.1869 19.5997 12.4583C19.7271 12.5508 20.5577 14.2667 20.8334 14.7057ZM19.3484 13.5584C19.3188 13.6095 19.2956 13.6635 19.2714 13.7173C18.9653 14.1701 18.7115 14.6531 18.4192 15.1137C17.6989 16.2489 16.7782 17.553 15.854 18.54C15.5317 18.8843 15.1523 19.1043 14.7587 19.3548C13.8832 19.9119 13.3985 20.4295 12.8383 21.31C17.1034 22.9328 19.0321 26.5042 24.2605 25.2746C26.2979 24.7954 28.1182 23.8497 29.8285 22.6585C30.1525 22.4329 30.5828 22.1389 30.8481 21.8526C28.295 20.9421 26.7481 20.6838 23.981 21.1895C23.643 21.2513 20.8785 21.8318 21.2994 22.5436C21.4768 22.8436 21.9589 23.0912 21.2669 23.473C20.7013 23.2869 20.3187 22.6937 20.5162 22.1048C20.7567 21.3877 21.6115 21.0251 22.2693 20.7654C21.6972 20.7378 21.1403 20.7282 20.5674 20.7283L19.2603 20.7198C18.3461 20.7209 17.2629 20.7868 16.366 20.728C18.6613 20.0263 21.3328 19.8783 23.7269 20.1233C24.2067 20.1725 24.609 20.2483 25.0959 20.1637C24.9894 20.0961 24.8776 20.0315 24.777 19.9555C24.4414 19.9023 23.1984 19.4317 22.8926 19.2908C22.5822 19.1477 22.0643 18.6185 21.949 18.3057C21.1018 18.3877 20.473 18.3135 21.6355 17.8386C21.8218 17.7783 22.017 17.7399 22.2069 17.6919C22.0905 17.5242 21.9385 17.3741 21.8018 17.2229C20.8218 16.1382 20.0857 14.8114 19.3484 13.5584ZM21.136 15.1202C22.4185 17.3323 24.4666 18.5227 26.2678 20.1637C28.025 20.1257 29.2647 20.5327 30.8481 21.2388C30.5229 19.5314 29.8126 17.413 28.7758 16.0114C27.6976 16.0067 26.1829 14.9976 25.5611 14.1585C24.9078 14.3256 24.6614 14.2582 24.0503 14.2958C24.4392 14.034 24.8902 13.8159 25.3177 13.6228C24.8057 12.7368 24.8531 11.3203 25.3177 10.4436C25.2256 10.2628 25.138 10.0775 25.0331 9.90362C23.8238 11.6347 22.7924 13.7495 21.136 15.1202ZM12.5323 14.102C11.4915 14.8564 11.2146 16.3234 10.2626 17.1524C9.36414 17.9347 8.36397 17.7497 7.43811 18.3059C6.07541 19.1245 5.19689 20.4372 4.06745 21.4641L4.09947 21.4579C4.38096 21.4018 4.65601 21.295 4.93057 21.2115C7.23098 20.5118 10.0142 20.3757 12.2952 21.145C12.3334 20.7803 12.5687 19.6833 12.5478 19.4067L12.528 19.4149L12.5323 19.3961C12.868 19.3807 13.1834 19.2972 13.4593 19.1021C13.1679 18.9548 12.8548 18.9273 12.5323 18.9173C12.2954 18.2687 12.5549 17.9535 12.728 17.333C12.1601 17.49 11.6951 17.2859 11.4386 16.7495C12.0783 17.1327 12.172 16.9318 12.809 16.7574L12.8383 16.7495C12.8172 16.4107 12.8436 15.3164 12.8831 14.9478C12.8356 14.6525 12.6252 14.388 12.5323 14.102Z" fill="black"/>
<path d="M12.8831 14.9478C13.2566 15.3888 13.2292 15.6772 13.8191 16.2252C13.4962 16.4229 13.1409 16.5068 12.8383 16.7496C12.8173 16.4107 12.8436 15.3164 12.8831 14.9478Z" fill="#FECA04"/>
<path d="M22.8083 18.2125C23.4381 18.8193 24.1711 19.3281 24.777 19.9556C24.4414 19.9023 23.1984 19.4317 22.8926 19.2908C22.5822 19.1477 22.0643 18.6185 21.949 18.3057C22.2355 18.2946 22.5276 18.274 22.8083 18.2125Z" fill="#FECA04"/>
<path d="M25.3177 10.4436C25.6779 11.19 26.0896 11.9074 26.4981 12.6277C26.1929 13.0834 25.7949 13.3675 25.3177 13.6229C24.8057 12.7368 24.8532 11.3203 25.3177 10.4436Z" fill="#FECA04"/>
<path d="M25.5612 14.1585C26.111 14.0338 26.6181 13.6603 26.8773 13.1592C27.4213 14.1649 28.2369 15.0052 28.7758 16.0114C27.6976 16.0068 26.1829 14.9976 25.5612 14.1585Z" fill="#FECA04"/>
<path d="M14.3361 16.5947C14.9353 16.9659 15.2203 17.4232 15.3171 18.1066C14.1852 19.1454 12.9461 19.297 12.5322 21.2388C12.4556 21.2068 12.3754 21.1656 12.2952 21.1451C12.3334 20.7803 12.5687 19.6833 12.5478 19.4068L12.528 19.4149L12.5322 19.3962C12.868 19.3807 13.1834 19.2973 13.4593 19.1022C13.1679 18.9548 12.8548 18.9274 12.5322 18.9173C12.2954 18.2687 12.5549 17.9536 12.7279 17.3331C13.1989 17.1865 13.9892 16.9421 14.3361 16.5947Z" fill="#FECA04"/>
<path d="M12.5322 18.9173C12.8548 18.9273 13.1679 18.9548 13.4593 19.1021C13.1834 19.2972 12.868 19.3807 12.5322 19.3961C11.7143 19.5659 10.0708 19.3259 9.12433 19.338C9.92413 19.0109 11.6517 18.8796 12.5322 18.9173Z" fill="black"/>
<path d="M19.3484 13.5584C20.0857 14.8114 20.8218 16.1382 21.8018 17.223C21.9385 17.3742 22.0905 17.5242 22.2069 17.6919C22.017 17.7399 21.8218 17.7784 21.6355 17.8386C20.6623 17.3358 20.2343 17.0423 19.6526 16.0114C19.2842 15.9478 18.8774 15.968 18.5198 15.8612C18.0658 15.7257 19.3494 15.4498 19.4568 15.4287C19.2834 14.7924 19.3056 14.3397 19.2714 13.7173C19.2956 13.6635 19.3188 13.6095 19.3484 13.5584Z" fill="#FECA04"/>
<path d="M19.4568 15.4286C20.1558 15.3645 20.4735 15.6195 20.8334 16.1736C20.4375 16.1401 20.0475 16.0465 19.6526 16.0114C19.2842 15.9478 18.8774 15.968 18.5198 15.8612C18.0658 15.7256 19.3494 15.4498 19.4568 15.4286Z" fill="black"/>
</svg>
