<svg width="138" height="70" viewBox="0 0 138 70" fill="none" xmlns="http://www.w3.org/2000/svg">
<path d="M73.6436 21.8906H78.3984C79.043 21.8906 79.6729 21.958 80.2881 22.0928C80.9092 22.2275 81.4365 22.4795 81.8701 22.8486C82.3037 23.2119 82.5205 23.7158 82.5205 24.3604C82.5205 24.8174 82.3887 25.2363 82.125 25.6172C81.8613 25.9922 81.5215 26.3027 81.1055 26.5488C80.6895 26.7949 80.2529 26.9648 79.7959 27.0586C80.4521 27.2754 80.9766 27.6035 81.3691 28.043C81.7676 28.4824 81.9668 29.0391 81.9668 29.7129C81.9668 30.6973 81.6475 31.4297 81.0088 31.9102C80.376 32.3906 79.6289 32.6924 78.7676 32.8154C77.9062 32.9385 76.8838 33 75.7002 33H71.5342C71.4932 33 71.4727 32.9443 71.4727 32.833C71.4727 32.6748 71.5283 32.5137 71.6396 32.3496C72.1436 32.3496 72.5332 32.2588 72.8086 32.0771C73.0898 31.8896 73.2773 31.5586 73.3711 31.084C73.4238 30.8086 73.5527 30.2227 73.7578 29.3262C74.1035 27.7969 74.376 26.5312 74.5752 25.5293C74.7803 24.5273 74.8828 23.8213 74.8828 23.4111C74.8828 23.2002 74.8359 23.0391 74.7422 22.9277C74.6543 22.8105 74.5488 22.7314 74.4258 22.6904C74.3027 22.6494 74.1533 22.6172 73.9775 22.5938C73.8252 22.5703 73.7139 22.5469 73.6436 22.5234C73.5791 22.4941 73.5469 22.4443 73.5469 22.374C73.5469 22.2334 73.5791 22.0723 73.6436 21.8906ZM76.4648 23.71C76.2188 24.5654 75.9697 25.5938 75.7178 26.7949H77.2734C77.8301 26.7949 78.3896 26.7305 78.9521 26.6016C79.5205 26.4727 80.0039 26.2441 80.4023 25.916C80.8066 25.5879 81.0088 25.1426 81.0088 24.5801C81.0088 24.0879 80.8564 23.6895 80.5518 23.3848C80.2529 23.0801 79.8838 22.8633 79.4443 22.7344C79.0107 22.6055 78.5742 22.541 78.1348 22.541C77.8184 22.541 77.5576 22.5674 77.3525 22.6201C77.1475 22.6729 76.9688 22.7842 76.8164 22.9541C76.6641 23.124 76.5469 23.376 76.4648 23.71ZM77.3701 27.4277H75.5859C75.5098 27.7969 75.375 28.4854 75.1816 29.4932C74.9824 30.5713 74.8037 31.4824 74.6455 32.2266H76.4209C77.5869 32.2266 78.5596 32.0566 79.3389 31.7168C80.124 31.377 80.5166 30.7002 80.5166 29.6865C80.5166 28.7725 80.1885 28.1689 79.5322 27.876C78.876 27.5771 78.1553 27.4277 77.3701 27.4277ZM90.4746 26.6543C90.7793 27.1582 90.9316 27.7793 90.9316 28.5176C90.9316 29.3203 90.7559 30.0791 90.4043 30.7939C90.0527 31.5029 89.5605 32.0771 88.9277 32.5166C88.2949 32.9502 87.5801 33.167 86.7832 33.167C86.2207 33.167 85.6934 33.0439 85.2012 32.7979C84.709 32.5459 84.3105 32.165 84.0059 31.6553C83.707 31.1455 83.5576 30.5186 83.5576 29.7744C83.5576 28.8604 83.7568 28.0547 84.1553 27.3574C84.5596 26.6543 85.0811 26.1152 85.7197 25.7402C86.3643 25.3594 87.0352 25.1689 87.7324 25.1689C88.2832 25.1689 88.8018 25.292 89.2881 25.5381C89.7744 25.7783 90.1699 26.1504 90.4746 26.6543ZM85.8604 32.0596C86.1182 32.2412 86.4023 32.332 86.7129 32.332C87.1465 32.332 87.5713 32.1855 87.9873 31.8926C88.4033 31.5996 88.7432 31.1543 89.0068 30.5566C89.2764 29.959 89.4111 29.2324 89.4111 28.377C89.4111 27.5918 89.2646 27.0029 88.9717 26.6104C88.6787 26.2119 88.3066 26.0127 87.8555 26.0127C87.4219 26.0127 86.9854 26.1709 86.5459 26.4873C86.1064 26.7979 85.7432 27.2432 85.4561 27.8232C85.1748 28.4033 85.0342 29.0713 85.0342 29.8271C85.0342 30.3779 85.1074 30.8408 85.2539 31.2158C85.4062 31.5908 85.6084 31.8721 85.8604 32.0596ZM95.1064 29.4316C94.9248 29.959 94.7637 30.375 94.623 30.6797L94.7285 30.75C95.4316 29.2734 96.2256 27.9756 97.1104 26.8564C97.9951 25.7314 98.8975 25.1689 99.8174 25.1689C100.333 25.1865 100.711 25.3271 100.951 25.5908C101.197 25.8545 101.32 26.1738 101.32 26.5488C101.32 26.918 101.259 27.3105 101.136 27.7266C101.013 28.1426 100.828 28.6641 100.582 29.291C100.365 29.8418 100.201 30.2959 100.09 30.6533C99.9844 31.0049 99.9316 31.3271 99.9316 31.6201C99.9316 31.9834 100.052 32.165 100.292 32.165C100.474 32.165 100.649 32.0977 100.819 31.9629C100.995 31.8223 101.159 31.6494 101.312 31.4443C101.47 31.2393 101.698 30.917 101.997 30.4775L102.129 30.2842C102.346 30.4658 102.51 30.6123 102.621 30.7236L102.428 30.9873C102.064 31.5088 101.748 31.9189 101.479 32.2178C101.215 32.5166 100.937 32.751 100.644 32.9209C100.351 33.085 100.025 33.167 99.668 33.167C99.293 33.167 99 33.0381 98.7891 32.7803C98.5781 32.5166 98.4727 32.1768 98.4727 31.7607C98.4727 31.292 98.5459 30.7939 98.6924 30.2666C98.8447 29.7334 99.0498 29.1211 99.3076 28.4297C99.4775 27.9609 99.5977 27.6094 99.668 27.375C99.7441 27.1406 99.7822 26.9443 99.7822 26.7861C99.7822 26.6631 99.7471 26.5518 99.6768 26.4521C99.6064 26.3525 99.498 26.3027 99.3516 26.3027C98.9648 26.3027 98.5166 26.5869 98.0068 27.1553C97.5029 27.7178 97.0225 28.3594 96.5654 29.0801C96.1084 29.7949 95.6074 30.6299 95.0625 31.585C94.7285 32.1592 94.5264 32.502 94.4561 32.6133C94.3623 32.7598 94.248 32.8887 94.1133 33C93.9844 33.1113 93.8555 33.167 93.7266 33.167C93.5098 33.167 93.3428 33.085 93.2256 32.9209C93.1084 32.7568 93.0498 32.5371 93.0498 32.2617C93.0498 32.0156 93.1055 31.7256 93.2168 31.3916L93.4014 30.8291C93.7295 29.8506 93.9873 29.0244 94.1748 28.3506C94.3623 27.6768 94.4561 27.1436 94.4561 26.751C94.4561 26.6279 94.4297 26.5166 94.377 26.417C94.3301 26.3115 94.2363 26.2588 94.0957 26.2588C93.9199 26.2588 93.7383 26.3379 93.5508 26.4961C93.3691 26.6543 93.1934 26.8506 93.0234 27.085C92.8535 27.3135 92.6367 27.6328 92.373 28.043L92.1885 28.333L91.6875 27.8936L91.9248 27.5332C92.335 26.9062 92.7686 26.3848 93.2256 25.9688C93.6885 25.5469 94.1865 25.3359 94.7197 25.3359C95.042 25.3359 95.3027 25.4326 95.502 25.626C95.7012 25.8135 95.8008 26.0889 95.8008 26.4521C95.8008 26.8154 95.7305 27.2725 95.5898 27.8232C95.4551 28.3682 95.2939 28.9043 95.1064 29.4316ZM107.815 23.209C107.675 23.3379 107.493 23.4023 107.271 23.4023C107.095 23.4023 106.919 23.3584 106.743 23.2705C106.573 23.1768 106.433 23.042 106.321 22.8662C106.21 22.6904 106.154 22.4883 106.154 22.2598C106.154 22.002 106.23 21.8057 106.383 21.6709C106.541 21.5303 106.734 21.46 106.963 21.46C107.133 21.46 107.3 21.5039 107.464 21.5918C107.628 21.6797 107.763 21.8086 107.868 21.9785C107.974 22.1484 108.026 22.3535 108.026 22.5938C108.026 22.8691 107.956 23.0742 107.815 23.209ZM103.781 27.6738L103.351 27.3398C103.409 27.2578 103.45 27.1963 103.474 27.1553C103.802 26.6807 104.068 26.3145 104.273 26.0566C104.484 25.793 104.71 25.5791 104.95 25.415C105.196 25.251 105.463 25.1689 105.75 25.1689C106.664 25.1689 107.121 25.6406 107.121 26.584C107.121 26.9531 107.054 27.3984 106.919 27.9199L106.207 30.7236L106.093 31.1807C105.835 32.2061 105.586 33.0352 105.346 33.668C105.105 34.3066 104.751 34.8486 104.282 35.2939C103.813 35.7451 103.201 35.9707 102.445 35.9707C102.176 35.9707 101.897 35.9297 101.61 35.8477C101.323 35.7715 101.08 35.6455 100.881 35.4697C100.676 35.2998 100.573 35.083 100.573 34.8193C100.573 34.6494 100.623 34.5176 100.723 34.4238C100.816 34.3359 100.951 34.292 101.127 34.292C101.297 34.292 101.449 34.3271 101.584 34.3975C101.719 34.4678 101.88 34.5732 102.067 34.7139C102.272 34.8662 102.448 34.9775 102.595 35.0479C102.735 35.124 102.896 35.1621 103.078 35.1621C103.312 35.1621 103.503 35.0742 103.649 34.8984C103.796 34.7285 103.901 34.5293 103.966 34.3008C104.036 34.0781 104.104 33.7998 104.168 33.4658L104.203 33.2812C104.344 32.5547 104.558 31.6289 104.845 30.5039L104.977 29.9678L105.565 27.6123C105.665 27.2256 105.715 26.9268 105.715 26.7158C105.715 26.5342 105.677 26.3818 105.601 26.2588C105.53 26.1357 105.416 26.0742 105.258 26.0742C105.105 26.0742 104.941 26.1445 104.766 26.2852C104.596 26.4258 104.429 26.6279 104.265 26.8916L103.781 27.6738ZM115.418 26.6543C115.723 27.1582 115.875 27.7793 115.875 28.5176C115.875 29.3203 115.699 30.0791 115.348 30.7939C114.996 31.5029 114.504 32.0771 113.871 32.5166C113.238 32.9502 112.523 33.167 111.727 33.167C111.164 33.167 110.637 33.0439 110.145 32.7979C109.652 32.5459 109.254 32.165 108.949 31.6553C108.65 31.1455 108.501 30.5186 108.501 29.7744C108.501 28.8604 108.7 28.0547 109.099 27.3574C109.503 26.6543 110.024 26.1152 110.663 25.7402C111.308 25.3594 111.979 25.1689 112.676 25.1689C113.227 25.1689 113.745 25.292 114.231 25.5381C114.718 25.7783 115.113 26.1504 115.418 26.6543ZM110.804 32.0596C111.062 32.2412 111.346 32.332 111.656 32.332C112.09 32.332 112.515 32.1855 112.931 31.8926C113.347 31.5996 113.687 31.1543 113.95 30.5566C114.22 29.959 114.354 29.2324 114.354 28.377C114.354 27.5918 114.208 27.0029 113.915 26.6104C113.622 26.2119 113.25 26.0127 112.799 26.0127C112.365 26.0127 111.929 26.1709 111.489 26.4873C111.05 26.7979 110.687 27.2432 110.399 27.8232C110.118 28.4033 109.978 29.0713 109.978 29.8271C109.978 30.3779 110.051 30.8408 110.197 31.2158C110.35 31.5908 110.552 31.8721 110.804 32.0596ZM120.463 25.4502C120.639 25.6318 120.727 25.8926 120.727 26.2324C120.727 26.5664 120.659 26.9531 120.524 27.3926C120.39 27.8262 120.19 28.3799 119.927 29.0537C119.687 29.6631 119.505 30.1582 119.382 30.5391C119.265 30.9199 119.206 31.2451 119.206 31.5146C119.206 31.6787 119.25 31.8164 119.338 31.9277C119.426 32.0391 119.543 32.0947 119.689 32.0947C119.982 32.0947 120.404 31.7197 120.955 30.9697C121.512 30.2197 122.174 29.2354 122.941 28.0166C123.246 27.5361 123.451 27.2168 123.557 27.0586L123.776 26.7334C124.099 26.2471 124.389 25.8662 124.646 25.5908C124.91 25.3096 125.191 25.1689 125.49 25.1689C125.666 25.1689 125.801 25.2539 125.895 25.4238C125.994 25.5938 126.044 25.7988 126.044 26.0391C126.044 26.1855 126.021 26.3643 125.974 26.5752L124.69 30.8906C124.597 31.2305 124.55 31.4941 124.55 31.6816C124.55 32.0273 124.67 32.2002 124.91 32.2002C125.121 32.2002 125.32 32.1123 125.508 31.9365C125.701 31.7549 125.959 31.4385 126.281 30.9873L126.791 30.2754L127.292 30.6797L126.791 31.374C126.527 31.7725 126.281 32.0977 126.053 32.3496C125.824 32.6016 125.575 32.8008 125.306 32.9473C125.036 33.0938 124.737 33.167 124.409 33.167C124.034 33.167 123.744 33.0439 123.539 32.7979C123.334 32.5459 123.231 32.2324 123.231 31.8574C123.231 31.3477 123.319 30.7939 123.495 30.1963C123.677 29.5986 123.917 28.9102 124.216 28.1309L124.312 27.8848L124.532 27.3047L124.392 27.2344C124.245 27.4688 124.069 27.7734 123.864 28.1484C123.313 29.1094 122.815 29.9268 122.37 30.6006C121.925 31.2744 121.427 31.8721 120.876 32.3936C120.331 32.9092 119.792 33.167 119.259 33.167C118.292 33.167 117.809 32.6836 117.809 31.7168C117.809 31.2422 117.899 30.7119 118.081 30.126C118.269 29.54 118.521 28.8574 118.837 28.0781C119.013 27.6328 119.136 27.3076 119.206 27.1025C119.282 26.8916 119.32 26.7305 119.32 26.6191C119.32 26.4844 119.279 26.376 119.197 26.2939C119.121 26.2061 119.016 26.1621 118.881 26.1621C118.623 26.1621 118.362 26.3291 118.099 26.6631C117.835 26.9912 117.557 27.4043 117.264 27.9023C117.229 27.9609 117.193 28.0225 117.158 28.0869C117.123 28.1514 117.085 28.21 117.044 28.2627L116.578 27.8408C116.93 27.1377 117.372 26.5166 117.905 25.9775C118.438 25.4385 119.001 25.1689 119.593 25.1689C119.997 25.1689 120.287 25.2627 120.463 25.4502ZM128.812 25.9248C129.264 25.5322 129.756 25.3359 130.289 25.3359C130.611 25.3359 130.852 25.4414 131.01 25.6523C131.174 25.8574 131.256 26.127 131.256 26.4609C131.256 26.8418 131.177 27.3135 131.019 27.876C130.866 28.4326 130.626 29.2002 130.298 30.1787L130.14 30.6621L130.307 30.7324L131.115 29.291C131.227 29.1094 131.355 28.8867 131.502 28.623C131.877 27.9609 132.217 27.3955 132.521 26.9268C132.826 26.458 133.175 26.0479 133.567 25.6963C133.966 25.3389 134.37 25.1602 134.78 25.1602C134.985 25.1602 135.173 25.2393 135.343 25.3975C135.513 25.5557 135.598 25.7373 135.598 25.9424C135.598 26.1182 135.533 26.2705 135.404 26.3994C135.281 26.5283 135.129 26.6338 134.947 26.7158C134.771 26.7979 134.54 26.8945 134.253 27.0059C134.183 27.0352 134.086 27.0732 133.963 27.1201C133.84 27.167 133.74 27.2109 133.664 27.252C133.348 27.4102 132.97 27.7793 132.53 28.3594C132.091 28.9395 131.663 29.5781 131.247 30.2754C130.837 30.9727 130.515 31.5703 130.28 32.0684C130.087 32.4258 129.899 32.6895 129.718 32.8594C129.536 33.0293 129.325 33.1143 129.085 33.1143C128.927 33.1143 128.798 33.0469 128.698 32.9121C128.604 32.7773 128.558 32.5664 128.558 32.2793C128.558 32.1035 128.587 31.9131 128.646 31.708C128.704 31.5029 128.792 31.2363 128.909 30.9082C128.909 30.9082 128.947 30.7939 129.023 30.5654C129.381 29.4873 129.627 28.6406 129.762 28.0254C129.902 27.4043 129.973 26.9561 129.973 26.6807C129.973 26.5928 129.946 26.502 129.894 26.4082C129.841 26.3086 129.744 26.2588 129.604 26.2588C129.41 26.2588 129.211 26.3525 129.006 26.54C128.807 26.7217 128.637 26.9121 128.496 27.1113C128.355 27.3105 128.177 27.583 127.96 27.9287L127.485 27.4805C127.925 26.8359 128.367 26.3174 128.812 25.9248ZM79.1455 37.541H77.1416C77.0068 38.1621 76.7959 39.0439 76.5088 40.1865C76.0986 41.874 75.7793 43.2451 75.5508 44.2998C75.3223 45.3545 75.208 46.1074 75.208 46.5586C75.208 46.8633 75.3516 47.0684 75.6387 47.1738C75.9316 47.2793 76.2744 47.3379 76.667 47.3496C76.6729 47.3789 76.6787 47.4199 76.6846 47.4727C76.6963 47.5254 76.7021 47.5693 76.7021 47.6045C76.7021 47.7686 76.6436 47.9004 76.5264 48H71.6221L71.5518 47.833L71.7363 47.3408C72.2637 47.3408 72.6885 47.2529 73.0107 47.0771C73.333 46.9014 73.5439 46.5791 73.6436 46.1104L75.498 37.541H73.3623C73.1807 37.541 73.0137 37.6406 72.8613 37.8398C72.709 38.0332 72.5332 38.3203 72.334 38.7012C72.123 39.0879 71.9473 39.375 71.8066 39.5625C71.666 39.7441 71.5078 39.835 71.332 39.835C71.2441 39.835 71.1592 39.8174 71.0771 39.7822C70.9951 39.7412 70.9248 39.6855 70.8662 39.6152L71.4814 36.8906H81.3955L80.833 39.5186C80.6162 39.7236 80.3936 39.8262 80.165 39.8262C80.0186 39.8262 79.916 39.7383 79.8574 39.5625C79.8047 39.3867 79.7578 39.1201 79.7168 38.7627C79.6699 38.3584 79.6113 38.0537 79.541 37.8486C79.4707 37.6436 79.3389 37.541 79.1455 37.541ZM81.2812 40.9248C81.7324 40.5322 82.2246 40.3359 82.7578 40.3359C83.0801 40.3359 83.3203 40.4414 83.4785 40.6523C83.6426 40.8574 83.7246 41.127 83.7246 41.4609C83.7246 41.8418 83.6455 42.3135 83.4873 42.876C83.335 43.4326 83.0947 44.2002 82.7666 45.1787L82.6084 45.6621L82.7754 45.7324L83.584 44.291C83.6953 44.1094 83.8242 43.8867 83.9707 43.623C84.3457 42.9609 84.6855 42.3955 84.9902 41.9268C85.2949 41.458 85.6436 41.0479 86.0361 40.6963C86.4346 40.3389 86.8389 40.1602 87.249 40.1602C87.4541 40.1602 87.6416 40.2393 87.8115 40.3975C87.9814 40.5557 88.0664 40.7373 88.0664 40.9424C88.0664 41.1182 88.002 41.2705 87.873 41.3994C87.75 41.5283 87.5977 41.6338 87.416 41.7158C87.2402 41.7979 87.0088 41.8945 86.7217 42.0059C86.6514 42.0352 86.5547 42.0732 86.4316 42.1201C86.3086 42.167 86.209 42.2109 86.1328 42.252C85.8164 42.4102 85.4385 42.7793 84.999 43.3594C84.5596 43.9395 84.1318 44.5781 83.7158 45.2754C83.3057 45.9727 82.9834 46.5703 82.749 47.0684C82.5557 47.4258 82.3682 47.6895 82.1865 47.8594C82.0049 48.0293 81.7939 48.1143 81.5537 48.1143C81.3955 48.1143 81.2666 48.0469 81.167 47.9121C81.0732 47.7773 81.0264 47.5664 81.0264 47.2793C81.0264 47.1035 81.0557 46.9131 81.1143 46.708C81.1729 46.5029 81.2607 46.2363 81.3779 45.9082C81.3779 45.9082 81.416 45.7939 81.4922 45.5654C81.8496 44.4873 82.0957 43.6406 82.2305 43.0254C82.3711 42.4043 82.4414 41.9561 82.4414 41.6807C82.4414 41.5928 82.415 41.502 82.3623 41.4082C82.3096 41.3086 82.2129 41.2588 82.0723 41.2588C81.8789 41.2588 81.6797 41.3525 81.4746 41.54C81.2754 41.7217 81.1055 41.9121 80.9648 42.1113C80.8242 42.3105 80.6455 42.583 80.4287 42.9287L79.9541 42.4805C80.3936 41.8359 80.8359 41.3174 81.2812 40.9248ZM96.5742 45.4951L96.7412 45.2754L97.2158 45.6797C96.7705 46.3418 96.293 46.9248 95.7832 47.4287C95.2793 47.9326 94.752 48.1846 94.2012 48.1846C94.0898 48.1846 93.9551 48.1465 93.7969 48.0703C93.6445 47.9941 93.501 47.8418 93.3662 47.6133C93.2373 47.3789 93.1729 47.0508 93.1729 46.6289C93.1729 46.5234 93.2109 46.21 93.2871 45.6885C92.5605 47.3408 91.5264 48.167 90.1846 48.167C89.7686 48.167 89.3818 48.0615 89.0244 47.8506C88.6729 47.6338 88.3887 47.3027 88.1719 46.8574C87.9551 46.4062 87.8467 45.8438 87.8467 45.1699C87.8467 44.332 88.0283 43.5293 88.3916 42.7617C88.7607 41.9883 89.2559 41.3643 89.877 40.8896C90.5039 40.4092 91.1865 40.1689 91.9248 40.1689C92.3936 40.1689 92.7832 40.2656 93.0938 40.459C93.4043 40.6523 93.6357 40.8867 93.7881 41.1621C93.9463 41.4375 94.0342 41.6982 94.0518 41.9443L94.4033 40.793C94.4443 40.6699 94.5029 40.5762 94.5791 40.5117C94.6553 40.4414 94.7578 40.4062 94.8867 40.4062C95.0918 40.4062 95.2646 40.4648 95.4053 40.582C95.5518 40.6992 95.625 40.8428 95.625 41.0127C95.625 41.0479 95.6104 41.124 95.5811 41.2412L94.7725 43.8691C94.6143 44.373 94.4883 44.8213 94.3945 45.2139C94.3066 45.6064 94.2627 45.9463 94.2627 46.2334C94.2627 46.4736 94.3037 46.6729 94.3857 46.8311C94.4736 46.9834 94.6143 47.0596 94.8076 47.0596C95.0654 47.0596 95.3379 46.9131 95.625 46.6201C95.918 46.3213 96.2344 45.9463 96.5742 45.4951ZM93.2256 44.8184C93.5244 44.1387 93.6738 43.4912 93.6738 42.876C93.6738 42.5537 93.6006 42.249 93.4541 41.9619C93.3135 41.6689 93.1172 41.4346 92.8652 41.2588C92.6191 41.083 92.3496 40.9951 92.0566 40.9951C91.6758 40.9951 91.2686 41.1738 90.835 41.5312C90.4014 41.8887 90.0381 42.3721 89.7451 42.9814C89.458 43.585 89.3145 44.2412 89.3145 44.9502C89.3145 45.6768 89.4346 46.2334 89.6748 46.6201C89.9209 47.0068 90.2461 47.2002 90.6504 47.2002C91.1367 47.2002 91.6143 46.9746 92.083 46.5234C92.5518 46.0664 92.9326 45.498 93.2256 44.8184ZM100.696 44.4316C100.515 44.959 100.354 45.375 100.213 45.6797L100.318 45.75C101.021 44.2734 101.815 42.9756 102.7 41.8564C103.585 40.7314 104.487 40.1689 105.407 40.1689C105.923 40.1865 106.301 40.3271 106.541 40.5908C106.787 40.8545 106.91 41.1738 106.91 41.5488C106.91 41.918 106.849 42.3105 106.726 42.7266C106.603 43.1426 106.418 43.6641 106.172 44.291C105.955 44.8418 105.791 45.2959 105.68 45.6533C105.574 46.0049 105.521 46.3271 105.521 46.6201C105.521 46.9834 105.642 47.165 105.882 47.165C106.063 47.165 106.239 47.0977 106.409 46.9629C106.585 46.8223 106.749 46.6494 106.901 46.4443C107.06 46.2393 107.288 45.917 107.587 45.4775L107.719 45.2842C107.936 45.4658 108.1 45.6123 108.211 45.7236L108.018 45.9873C107.654 46.5088 107.338 46.9189 107.068 47.2178C106.805 47.5166 106.526 47.751 106.233 47.9209C105.94 48.085 105.615 48.167 105.258 48.167C104.883 48.167 104.59 48.0381 104.379 47.7803C104.168 47.5166 104.062 47.1768 104.062 46.7607C104.062 46.292 104.136 45.7939 104.282 45.2666C104.435 44.7334 104.64 44.1211 104.897 43.4297C105.067 42.9609 105.188 42.6094 105.258 42.375C105.334 42.1406 105.372 41.9443 105.372 41.7861C105.372 41.6631 105.337 41.5518 105.267 41.4521C105.196 41.3525 105.088 41.3027 104.941 41.3027C104.555 41.3027 104.106 41.5869 103.597 42.1553C103.093 42.7178 102.612 43.3594 102.155 44.0801C101.698 44.7949 101.197 45.6299 100.652 46.585C100.318 47.1592 100.116 47.502 100.046 47.6133C99.9521 47.7598 99.8379 47.8887 99.7031 48C99.5742 48.1113 99.4453 48.167 99.3164 48.167C99.0996 48.167 98.9326 48.085 98.8154 47.9209C98.6982 47.7568 98.6396 47.5371 98.6396 47.2617C98.6396 47.0156 98.6953 46.7256 98.8066 46.3916L98.9912 45.8291C99.3193 44.8506 99.5771 44.0244 99.7646 43.3506C99.9521 42.6768 100.046 42.1436 100.046 41.751C100.046 41.6279 100.02 41.5166 99.9668 41.417C99.9199 41.3115 99.8262 41.2588 99.6855 41.2588C99.5098 41.2588 99.3281 41.3379 99.1406 41.4961C98.959 41.6543 98.7832 41.8506 98.6133 42.085C98.4434 42.3135 98.2266 42.6328 97.9629 43.043L97.7783 43.333L97.2773 42.8936L97.5146 42.5332C97.9248 41.9062 98.3584 41.3848 98.8154 40.9688C99.2783 40.5469 99.7764 40.3359 100.31 40.3359C100.632 40.3359 100.893 40.4326 101.092 40.626C101.291 40.8135 101.391 41.0889 101.391 41.4521C101.391 41.8154 101.32 42.2725 101.18 42.8232C101.045 43.3682 100.884 43.9043 100.696 44.4316ZM111.138 40.8721C110.675 40.8721 110.443 41.1826 110.443 41.8037C110.443 42.0088 110.502 42.1992 110.619 42.375C110.736 42.5508 110.883 42.7119 111.059 42.8584C111.24 43.0049 111.489 43.1895 111.806 43.4121C112.239 43.7168 112.591 43.9893 112.86 44.2295C113.136 44.4697 113.37 44.7656 113.563 45.1172C113.757 45.4688 113.854 45.873 113.854 46.3301C113.854 46.9629 113.625 47.4287 113.168 47.7275C112.717 48.0205 112.157 48.167 111.489 48.167C111.05 48.167 110.587 48.0996 110.101 47.9648C109.614 47.8242 109.201 47.6162 108.861 47.3408C108.527 47.0596 108.36 46.7197 108.36 46.3213C108.36 45.8818 108.621 45.6621 109.143 45.6621C109.154 45.6621 109.23 45.7822 109.371 46.0225C109.518 46.2568 109.79 46.5381 110.188 46.8662C110.593 47.1885 111.17 47.3643 111.92 47.3936C112.148 47.3936 112.327 47.3203 112.456 47.1738C112.585 47.0215 112.649 46.7725 112.649 46.4268C112.649 46.1338 112.579 45.8701 112.438 45.6357C112.298 45.3955 112.125 45.1875 111.92 45.0117C111.721 44.8301 111.445 44.6162 111.094 44.3701C110.707 44.0947 110.396 43.8545 110.162 43.6494C109.934 43.4443 109.737 43.1953 109.573 42.9023C109.415 42.6094 109.336 42.2754 109.336 41.9004C109.336 41.4961 109.456 41.165 109.696 40.9072C109.937 40.6494 110.238 40.4619 110.602 40.3447C110.971 40.2275 111.352 40.1689 111.744 40.1689C112.143 40.1689 112.547 40.2451 112.957 40.3975C113.367 40.5498 113.71 40.7783 113.985 41.083C114.261 41.3818 114.398 41.7393 114.398 42.1553C114.398 42.2725 114.354 42.3721 114.267 42.4541C114.179 42.5361 114.07 42.5771 113.941 42.5771C113.807 42.5771 113.678 42.5303 113.555 42.4365C113.432 42.3369 113.271 42.1787 113.071 41.9619C112.872 41.7393 112.688 41.5547 112.518 41.4082C112.354 41.2617 112.154 41.1357 111.92 41.0303C111.691 40.9248 111.431 40.8721 111.138 40.8721ZM116.543 49.7666C116.215 50.2295 115.781 50.5664 115.242 50.7773L114.794 50.5664C115.005 50.2676 115.257 49.6992 115.55 48.8613C115.843 48.0234 116.147 46.9102 116.464 45.5215L117.387 41.6104H115.594L115.778 40.8193H117.571L117.817 39.6592C118.028 38.6689 118.371 37.9072 118.846 37.374C119.32 36.835 119.974 36.5654 120.806 36.5654C121.046 36.5654 121.289 36.6094 121.535 36.6973C121.787 36.7793 121.998 36.9229 122.168 37.1279C122.344 37.3271 122.432 37.5908 122.432 37.9189C122.432 38.083 122.364 38.2295 122.229 38.3584C122.101 38.4814 121.928 38.543 121.711 38.543C121.547 38.543 121.415 38.4932 121.315 38.3936C121.222 38.2881 121.119 38.1357 121.008 37.9365C120.896 37.7256 120.788 37.5674 120.683 37.4619C120.577 37.3506 120.434 37.2949 120.252 37.2949C119.994 37.2949 119.763 37.4062 119.558 37.6289C119.353 37.8516 119.191 38.1445 119.074 38.5078C118.963 38.8652 118.907 39.2432 118.907 39.6416C118.907 40.0635 118.972 40.4561 119.101 40.8193H121.219L121.025 41.6104H118.925L118.107 45.0381C118.014 45.4365 117.946 45.7324 117.905 45.9258C117.688 46.8926 117.489 47.6602 117.308 48.2285C117.132 48.7969 116.877 49.3096 116.543 49.7666ZM123.636 40.7578C124.274 40.3652 124.957 40.1689 125.684 40.1689C126.076 40.1689 126.463 40.2539 126.844 40.4238C127.225 40.5879 127.538 40.8369 127.784 41.1709C128.036 41.499 128.162 41.8975 128.162 42.3662C128.162 43.0283 127.866 43.5439 127.274 43.9131C126.688 44.2822 126.035 44.5342 125.314 44.6689C124.594 44.7979 123.85 44.8887 123.082 44.9414L123.073 45.2754C123.073 45.6094 123.158 45.9346 123.328 46.251C123.498 46.5615 123.729 46.8164 124.022 47.0156C124.315 47.209 124.638 47.3057 124.989 47.3057C125.394 47.3057 125.76 47.2236 126.088 47.0596C126.416 46.8955 126.703 46.6904 126.949 46.4443C127.195 46.1982 127.468 45.8906 127.767 45.5215L128.382 45.917C127.907 46.5791 127.368 47.1211 126.765 47.543C126.161 47.959 125.525 48.167 124.857 48.167C124.26 48.167 123.703 48.0029 123.188 47.6748C122.678 47.3467 122.273 46.9043 121.975 46.3477C121.676 45.7852 121.526 45.1729 121.526 44.5107C121.526 43.7256 121.717 43.002 122.098 42.3398C122.484 41.6719 122.997 41.1445 123.636 40.7578ZM126.29 40.9863C126.103 40.8691 125.903 40.8105 125.692 40.8105C125.177 40.8105 124.729 40.9951 124.348 41.3643C123.967 41.7275 123.668 42.1787 123.451 42.7178C123.24 43.2568 123.12 43.7812 123.091 44.291C123.267 44.3027 123.381 44.3086 123.434 44.3086C123.832 44.3086 124.307 44.2266 124.857 44.0625C125.414 43.8926 125.897 43.6436 126.308 43.3154C126.724 42.9873 126.932 42.5918 126.932 42.1289C126.932 41.8828 126.873 41.6602 126.756 41.4609C126.639 41.2559 126.483 41.0977 126.29 40.9863ZM130.377 40.9248C130.828 40.5322 131.32 40.3359 131.854 40.3359C132.176 40.3359 132.416 40.4414 132.574 40.6523C132.738 40.8574 132.82 41.127 132.82 41.4609C132.82 41.8418 132.741 42.3135 132.583 42.876C132.431 43.4326 132.19 44.2002 131.862 45.1787L131.704 45.6621L131.871 45.7324L132.68 44.291C132.791 44.1094 132.92 43.8867 133.066 43.623C133.441 42.9609 133.781 42.3955 134.086 41.9268C134.391 41.458 134.739 41.0479 135.132 40.6963C135.53 40.3389 135.935 40.1602 136.345 40.1602C136.55 40.1602 136.737 40.2393 136.907 40.3975C137.077 40.5557 137.162 40.7373 137.162 40.9424C137.162 41.1182 137.098 41.2705 136.969 41.3994C136.846 41.5283 136.693 41.6338 136.512 41.7158C136.336 41.7979 136.104 41.8945 135.817 42.0059C135.747 42.0352 135.65 42.0732 135.527 42.1201C135.404 42.167 135.305 42.2109 135.229 42.252C134.912 42.4102 134.534 42.7793 134.095 43.3594C133.655 43.9395 133.228 44.5781 132.812 45.2754C132.401 45.9727 132.079 46.5703 131.845 47.0684C131.651 47.4258 131.464 47.6895 131.282 47.8594C131.101 48.0293 130.89 48.1143 130.649 48.1143C130.491 48.1143 130.362 48.0469 130.263 47.9121C130.169 47.7773 130.122 47.5664 130.122 47.2793C130.122 47.1035 130.151 46.9131 130.21 46.708C130.269 46.5029 130.356 46.2363 130.474 45.9082C130.474 45.9082 130.512 45.7939 130.588 45.5654C130.945 44.4873 131.191 43.6406 131.326 43.0254C131.467 42.4043 131.537 41.9561 131.537 41.6807C131.537 41.5928 131.511 41.502 131.458 41.4082C131.405 41.3086 131.309 41.2588 131.168 41.2588C130.975 41.2588 130.775 41.3525 130.57 41.54C130.371 41.7217 130.201 41.9121 130.061 42.1113C129.92 42.3105 129.741 42.583 129.524 42.9287L129.05 42.4805C129.489 41.8359 129.932 41.3174 130.377 40.9248Z" fill="#464646"/>
<path d="M17.7919 29.6342C19.3061 26.1597 21.4602 21.6555 25.3321 20.521C26.1208 20.2899 26.9489 20.2039 27.7616 20.0928C32.8993 19.3916 39.9878 19.3252 45.1996 19.8941C48.8123 20.2884 51.7414 21.1048 54.2424 24.0511C56.4378 26.6376 56.6619 28.4293 60.8218 27.1509C62.0975 26.7588 62.7516 26.1521 63.3708 24.9913C63.2003 27.5804 60.1783 28.8732 57.8792 28.7767C55.3572 28.6707 54.7687 27.0351 53.2692 25.3993C51.2419 23.1876 48.9407 22.2329 46.0232 21.8416C40.7541 21.1352 32.9781 21.2696 27.7625 22.0163C27.046 22.1189 26.1851 22.1758 25.5139 22.4433C23.0679 23.4185 20.9708 27.0948 19.9887 29.4305C20.5166 29.4421 21.0625 29.359 21.5901 29.3175C26.8862 28.9027 32.4963 28.9897 37.7181 29.9008C38.437 30.0263 39.4077 30.1716 40.076 30.4504C40.7959 28.101 42.0875 24.8185 43.0575 22.5933C44.0392 22.6796 45.0491 22.564 46.0374 22.5936C48.797 22.676 50.8263 23.9866 52.5369 26.0299C53.6286 27.3337 54.0106 28.7713 55.6154 29.5646C56.7842 30.1422 58.1665 30.2245 59.4347 29.9883C61.1064 31.7658 61.0613 34.6716 60.7857 36.9574C60.7238 37.4713 60.7312 38.0152 60.4029 38.4443V38.8207C61.4426 38.6356 62.4879 38.3583 63.5055 38.0764C60.5231 40.6582 50.966 42.6989 46.5177 43.1269C46.5279 44.3243 46.3854 45.4363 46.0808 46.5951C49.9326 44.931 54.0311 44.3124 58.1838 43.851C57.2508 44.161 56.292 44.4143 55.3462 44.6817L51.4678 45.7841C49.3065 46.3942 47.1028 46.9441 45.34 48.4061C42.8732 50.4521 42.9624 50.5031 39.7936 50.5017L34.6307 50.5018C31.0644 50.5022 28.598 49.4542 27.837 45.6305L12.3797 45.6301C11.7315 45.6297 11.08 45.608 10.4324 45.6305C10.7045 48.2289 12.0332 48.9528 14.2894 48.9843C15.6436 49.0033 16.979 49.1461 18.3292 49.2063C20.2403 49.2915 20.8544 48.1039 22.0991 46.9719C21.9534 48.7315 20.2809 50.0631 18.5583 50.1417C17.3778 50.1956 13.1105 50.2553 12.2781 50.0546C10.2366 49.5626 9.11888 47.6426 9.05715 45.6305C7.5775 45.3064 6.91199 44.338 6.68848 42.8616C5.39795 34.3365 9.89698 30.8079 17.7919 29.6342ZM10.957 34.1381C13.1586 34.0511 14.3894 35.3902 14.4565 37.5148C14.4747 38.0904 14.3734 41.3929 13.3106 39.553C12.7178 38.5269 12.4838 37.3044 12.1908 36.1704C11.4317 35.7681 10.5832 35.5987 9.74881 35.4284C9.08114 36.3678 8.66823 37.5179 8.52009 38.6576C9.50381 38.5924 11.014 38.8888 11.8363 39.442C10.9512 39.9763 9.44244 40.1535 8.40768 40.1597C8.36435 40.7926 8.47255 42.4323 8.63558 43.0299C8.93723 44.1357 11.255 43.7168 12.2636 43.7169L33.5583 43.7161H34.3115C34.4064 42.6879 34.5703 41.6881 34.7535 40.673C35.3877 40.3948 36.037 40.454 36.6964 40.032C37.8474 39.2954 38.5775 37.7443 39.1345 36.5333C39.7656 35.1614 39.9484 34.4711 38.2702 34.1381C38.5924 33.5733 40.0087 31.0537 39.9984 30.5782L39.9284 30.5559C34.5 30.31 29.4397 30.2501 23.9762 30.6799C20.4302 30.9588 13.4648 31.4467 10.957 34.1381ZM41.9937 38.4443C40.4835 38.7942 39.9964 40.8608 39.8326 42.1609C39.6508 43.6031 39.7778 45.2112 37.7984 45.6356C36.9988 45.807 35.9123 45.6366 35.0835 45.6311C33.2988 45.6192 31.5114 45.6617 29.7272 45.6305C30.5519 48.418 32.2271 48.6144 34.7535 48.602L39.0161 48.6005C39.9819 48.6006 41.2482 48.7088 42.1717 48.4714C44.4984 47.8737 45.43 45.3196 45.3567 43.1269C44.7739 43.0919 44.2292 43.0292 43.6483 43.1269C44.1924 42.832 44.7758 42.7436 45.3567 42.552C44.9683 41.1626 44.0237 37.9393 41.9937 38.4443ZM57.4681 34.2512C55.2985 34.8135 54.8479 38.3458 54.7663 40.1597C55.497 39.9592 56.2311 39.7984 56.9693 39.6295C57.985 39.3904 59.0055 39.1089 60.0297 38.9141C59.7908 37.5376 59.3601 34.2848 57.4681 34.2512ZM46.3457 41.2737C46.3861 41.5375 46.452 41.793 46.5177 42.0512C48.9338 41.3958 51.4151 40.9626 53.8233 40.2809C53.83 40.0017 53.8239 39.7213 53.8233 39.442C53.2641 39.6727 52.6116 39.7441 52.0235 39.8827L48.723 40.6834C47.9475 40.8678 47.1335 41.1687 46.3457 41.2737Z" fill="black"/>
<path d="M43.0575 22.5933C44.0392 22.6796 45.0491 22.5641 46.0374 22.5936C48.797 22.676 50.8263 23.9866 52.5369 26.0299C53.6286 27.3338 54.0106 28.7714 55.6154 29.5646C56.7842 30.1422 58.1664 30.2245 59.4346 29.9883C61.1064 31.7658 61.0613 34.6716 60.7857 36.9574C60.7238 37.4713 60.7312 38.0152 60.4029 38.4443L60.3993 38.4048C60.2572 36.6721 60.3229 34.7684 58.8273 33.4942C57.6797 32.5166 56.1843 32.7261 55.2397 33.8644C53.9831 35.3786 53.8166 37.556 53.8233 39.442C53.2641 39.6728 52.6116 39.7441 52.0235 39.8828L48.723 40.6834C47.9475 40.8678 47.1335 41.1687 46.3457 41.2737C44.6065 34.1467 38.6831 35.5999 38.045 42.2345C37.9954 42.7502 38.1397 43.6004 37.479 43.7671C37.4277 43.7801 33.6695 43.7248 33.5583 43.7161H34.3115C34.4064 42.688 34.5703 41.6881 34.7535 40.673C35.3877 40.3948 36.037 40.454 36.6964 40.0321C37.8474 39.2954 38.5775 37.7443 39.1345 36.5333C39.7656 35.1615 39.9484 34.4712 38.2702 34.1381C38.5924 33.5733 40.0087 31.0537 39.9984 30.5782L39.9284 30.556C39.9883 30.524 40.0255 30.4946 40.076 30.4504C40.7959 28.101 42.0875 24.8185 43.0575 22.5933Z" fill="#FECA04"/>
<path d="M45.3567 23.683C48.0074 23.4216 51.6026 24.9776 52.5094 27.6766C52.6721 28.1607 52.8123 28.7354 52.5582 29.2135C52.0634 30.1449 48.8616 31.1462 47.7914 31.4932C46.8903 31.7732 42.7257 33.0336 41.9225 32.3776C40.5821 31.2828 43.3297 24.9981 44.1586 24.0834C44.4877 23.7202 44.9009 23.7047 45.3567 23.683Z" fill="black"/>
<path d="M45.2277 24.9914C47.5504 24.7905 50.3081 25.8601 51.0274 28.281C50.19 28.6959 48.6575 29.1863 48.0092 29.6342C46.6099 29.7618 44.9699 30.5349 43.359 30.7132C43.5036 30.0341 44.5919 25.2272 45.2277 24.9914Z" fill="#FECA04"/>
<path d="M16.7918 39.8665C17.7371 39.8288 25.1095 40.2202 25.586 40.4164C25.7082 40.852 24.4005 40.86 24.1041 40.8919C23.664 41.0754 22.9872 41.0387 22.5093 41.0836C21.4601 41.1821 16.0638 41.8143 15.7954 40.327C15.7061 39.8322 16.4894 39.8862 16.7918 39.8665Z" fill="black"/>
<path d="M18.8729 35.9611C19.5895 35.9566 26.03 36.2136 26.3579 36.7649C26.1509 36.9715 24.1398 37.0964 23.7465 37.1324C21.3268 37.3808 15.9038 37.6506 16.4113 36.4205C16.8328 36.0366 18.2871 35.9905 18.8729 35.9611Z" fill="black"/>
<path d="M17.7919 37.8772C18.7802 37.8053 25.8214 38.3372 26.0129 38.5353C25.9864 39.0934 24.6292 38.9718 24.1041 39.0251C22.4723 39.1308 17.5224 39.7559 16.2034 38.8187C14.9853 37.9533 17.3599 37.8745 17.7919 37.8772Z" fill="black"/>
<path d="M27.1924 40.673L27.3134 39.837C27.6187 37.8491 28.6938 36.1482 30.3197 34.9671C32.6505 33.274 35.6204 33.7225 38.2702 34.1382C39.9484 34.4712 39.7656 35.1615 39.1345 36.5333C38.5775 37.7444 37.8474 39.2955 36.6964 40.0321C36.037 40.454 35.3877 40.3948 34.7535 40.673C34.061 40.7041 28.9395 40.7012 29.7373 39.4999C30.2203 38.7722 34.1346 39.0104 35.1686 38.6577C35.2535 38.4269 35.3675 38.2111 35.4892 37.9981C35.7558 37.336 36.3799 36.3721 36.7619 35.7219C32.8229 35.0553 31.1418 36.0931 28.5317 39.0383C28.066 39.5637 27.5678 40.0774 27.1924 40.673Z" fill="black"/>
<path d="M36.7619 35.7219C36.9889 35.74 37.2129 35.7807 37.4347 35.8315C37.0096 36.6473 36.4963 37.9813 35.6847 38.4443C35.5217 38.5499 35.3586 38.6165 35.1686 38.6576C35.2535 38.4268 35.3675 38.2111 35.4892 37.9981C35.7558 37.336 36.3799 36.3721 36.7619 35.7219Z" fill="#FECA04"/>
</svg>
