<svg width="50" height="50" viewBox="0 0 50 50" fill="none" xmlns="http://www.w3.org/2000/svg">
<path d="M29.3904 34.4492H26.5873C26.5108 34.4488 26.4359 34.4268 26.3714 34.3858C26.3069 34.3447 26.2552 34.2863 26.2224 34.2172L24.2185 29.9367C23.9627 29.3963 23.5592 28.9394 23.0545 28.6188C22.5499 28.2982 21.9648 28.127 21.3669 28.125H12.5232C11.9249 28.1269 11.3394 28.2982 10.8345 28.6191C10.3295 28.9401 9.92582 29.3974 9.67007 29.9383L7.66851 34.2148C7.63579 34.2847 7.58391 34.3438 7.5189 34.3853C7.4539 34.4268 7.37844 34.449 7.30132 34.4492H6.27788C5.44208 34.4498 4.64067 34.782 4.04952 35.3729C3.45838 35.9637 3.12579 36.765 3.12476 37.6008V41.9445C3.12517 42.466 3.33245 42.966 3.70111 43.3348C4.06977 43.7036 4.56969 43.9111 5.09116 43.9117H6.76538C6.94387 44.7501 7.40476 45.5018 8.07098 46.0411C8.7372 46.5804 9.56838 46.8747 10.4255 46.8747C11.2827 46.8747 12.1139 46.5804 12.7801 46.0411C13.4463 45.5018 13.9072 44.7501 14.0857 43.9117H21.5826C21.7685 44.7437 22.2323 45.4875 22.8975 46.0205C23.5628 46.5536 24.3899 46.844 25.2423 46.844C26.0948 46.844 26.9219 46.5536 27.5871 46.0205C28.2524 45.4875 28.7162 44.7437 28.9021 43.9117H30.5763C31.0978 43.9111 31.5977 43.7036 31.9664 43.3348C32.335 42.966 32.5423 42.466 32.5427 41.9445V37.6008C32.5417 36.7653 32.2093 35.9642 31.6185 35.3734C31.0277 34.7826 30.2259 34.4503 29.3904 34.4492ZM10.4263 45.3125C9.84761 45.3125 9.2926 45.0826 8.88339 44.6734C8.47418 44.2642 8.24429 43.7092 8.24429 43.1305C8.24429 42.5518 8.47418 41.9967 8.88339 41.5875C9.2926 41.1783 9.84761 40.9484 10.4263 40.9484C11.005 40.9484 11.56 41.1783 11.9692 41.5875C12.3785 41.9967 12.6083 42.5518 12.6083 43.1305C12.6083 43.7092 12.3785 44.2642 11.9692 44.6734C11.56 45.0826 11.005 45.3125 10.4263 45.3125ZM25.2435 45.3125C24.6648 45.3125 24.1098 45.0826 23.7006 44.6734C23.2914 44.2642 23.0615 43.7092 23.0615 43.1305C23.0615 42.5518 23.2914 41.9967 23.7006 41.5875C24.1098 41.1783 24.6648 40.9484 25.2435 40.9484C25.8222 40.9484 26.3772 41.1783 26.7864 41.5875C27.1956 41.9967 27.4255 42.5518 27.4255 43.1305C27.4255 43.7092 27.1956 44.2642 26.7864 44.6734C26.3772 45.0826 25.8222 45.3125 25.2435 45.3125ZM30.981 41.9453C30.9794 42.0519 30.9363 42.1537 30.8609 42.2291C30.7855 42.3045 30.6837 42.3476 30.5771 42.3492H28.9029C28.7173 41.5169 28.2536 40.7726 27.5882 40.2392C26.9228 39.7058 26.0955 39.4152 25.2427 39.4152C24.3899 39.4152 23.5626 39.7058 22.8972 40.2392C22.2318 40.7726 21.7681 41.5169 21.5826 42.3492H14.0857C13.8998 41.5173 13.436 40.7734 12.7707 40.2404C12.1055 39.7074 11.2784 39.4169 10.4259 39.4169C9.57345 39.4169 8.74641 39.7074 8.08113 40.2404C7.41585 40.7734 6.95205 41.5173 6.76616 42.3492H5.09116C4.98435 42.3478 4.88232 42.3047 4.80685 42.2291C4.73139 42.1535 4.68847 42.0513 4.68726 41.9445V37.6008C4.68767 37.1793 4.85533 36.7753 5.15341 36.4773C5.4515 36.1794 5.85565 36.0119 6.2771 36.0117H7.3021C7.67558 36.0104 8.04105 35.9033 8.35616 35.7028C8.67128 35.5023 8.92314 35.2167 9.08257 34.8789L11.0849 30.6023C11.2139 30.3297 11.4174 30.0991 11.6719 29.9372C11.9264 29.7753 12.2216 29.6887 12.5232 29.6875H21.3669C21.6683 29.6887 21.9632 29.775 22.2175 29.9366C22.4719 30.0982 22.6754 30.3285 22.8044 30.6008L24.606 34.4492H16.8334C16.7566 34.4488 16.6815 34.4267 16.6167 34.3853C16.552 34.344 16.5004 34.2851 16.4677 34.2156L15.3271 31.7781C15.237 31.5941 15.0783 31.4528 14.8851 31.3847C14.6919 31.3166 14.4796 31.3271 14.2941 31.414C14.1085 31.5009 13.9645 31.6572 13.8931 31.8492C13.8217 32.0412 13.8286 32.2536 13.9123 32.4406L15.0529 34.8781C15.2121 35.2162 15.4641 35.5021 15.7794 35.7026C16.0947 35.9031 16.4605 36.0101 16.8341 36.0109H26.1076C26.424 35.9813 29.0099 36.0305 29.3912 36.0109C29.8126 36.0114 30.2167 36.179 30.5146 36.4771C30.8126 36.7752 30.98 37.1793 30.9802 37.6008L30.981 41.9453ZM40.2787 3.125C38.5299 3.12707 36.8534 3.82268 35.6168 5.05923C34.3802 6.29579 33.6846 7.97234 33.6826 9.72109C33.6826 13.4648 37.4771 18.0156 39.1091 19.7977C39.2585 19.9585 39.4395 20.0868 39.6407 20.1746C39.842 20.2623 40.0591 20.3076 40.2787 20.3076C40.4982 20.3076 40.7154 20.2623 40.9166 20.1746C41.1178 20.0868 41.2988 19.9585 41.4482 19.7977C43.0802 18.0156 46.8748 13.4648 46.8748 9.72109C46.8727 7.97234 46.1771 6.29579 44.9405 5.05923C43.704 3.82268 42.0274 3.12707 40.2787 3.125ZM40.2615 18.743C39.0849 17.457 35.2451 13.007 35.2451 9.72109C35.2451 8.3861 35.7754 7.10579 36.7194 6.16181C37.6634 5.21782 38.9437 4.6875 40.2787 4.6875C41.6137 4.6875 42.894 5.21782 43.838 6.16181C44.7819 7.10579 45.3123 8.3861 45.3123 9.72109C45.3123 13.007 41.4724 17.457 40.2615 18.743Z" fill="#F9AC1A"/>
<path d="M40.2789 6.59607C39.4501 6.59607 38.6553 6.92531 38.0692 7.51136C37.4832 8.09741 37.1539 8.89227 37.1539 9.72107C37.1539 10.5499 37.4832 11.3447 38.0692 11.9308C38.6553 12.5168 39.4501 12.8461 40.2789 12.8461C41.1077 12.8461 41.9026 12.5168 42.4886 11.9308C43.0747 11.3447 43.4039 10.5499 43.4039 9.72107C43.4039 8.89227 43.0747 8.09741 42.4886 7.51136C41.9026 6.92531 41.1077 6.59607 40.2789 6.59607ZM40.2789 11.2836C39.8645 11.2836 39.4671 11.1189 39.1741 10.8259C38.881 10.5329 38.7164 10.1355 38.7164 9.72107C38.7164 9.30667 38.881 8.90924 39.1741 8.61622C39.4671 8.32319 39.8645 8.15857 40.2789 8.15857C40.6933 8.15857 41.0908 8.32319 41.3838 8.61622C41.6768 8.90924 41.8414 9.30667 41.8414 9.72107C41.8414 10.1355 41.6768 10.5329 41.3838 10.8259C41.0908 11.1189 40.6933 11.2836 40.2789 11.2836ZM31.336 8.93748H27.4297C27.2225 8.93748 27.0238 9.01979 26.8773 9.1663C26.7308 9.31281 26.6485 9.51153 26.6485 9.71873C26.6485 9.92593 26.7308 10.1246 26.8773 10.2712C27.0238 10.4177 27.2225 10.5 27.4297 10.5H31.336C31.5432 10.5 31.7419 10.4177 31.8884 10.2712C32.0349 10.1246 32.1172 9.92593 32.1172 9.71873C32.1172 9.51153 32.0349 9.31281 31.8884 9.1663C31.7419 9.01979 31.5432 8.93748 31.336 8.93748ZM29.9141 24.2187C29.9141 24.4259 29.9964 24.6246 30.1429 24.7712C30.2894 24.9177 30.4881 25 30.6953 25H34.6016C34.8088 25 35.0075 24.9177 35.154 24.7712C35.3005 24.6246 35.3828 24.4259 35.3828 24.2187C35.3828 24.0115 35.3005 23.8128 35.154 23.6663C35.0075 23.5198 34.8088 23.4375 34.6016 23.4375H30.6953C30.4881 23.4375 30.2894 23.5198 30.1429 23.6663C29.9964 23.8128 29.9141 24.0115 29.9141 24.2187ZM6.77346 22.7945C5.99221 24.3492 10.1258 25.0359 11.1641 25C11.3713 24.9989 11.5696 24.9156 11.7154 24.7684C11.8611 24.6211 11.9425 24.422 11.9414 24.2148C11.9404 24.0076 11.8571 23.8093 11.7098 23.6635C11.5626 23.5178 11.3635 23.4364 11.1563 23.4375C9.99047 23.4371 8.84645 23.1216 7.84533 22.5242C7.66727 22.4182 7.45445 22.3871 7.25353 22.4378C7.0526 22.4885 6.87997 22.6168 6.77346 22.7945ZM41.8578 25.8828C42.0382 25.9845 42.2515 26.0106 42.4511 25.9554C42.6507 25.9002 42.8202 25.7682 42.9227 25.5883C43.6688 24.0312 39.536 23.4148 38.5086 23.4375C38.406 23.4374 38.3044 23.4576 38.2096 23.4968C38.1148 23.536 38.0287 23.5935 37.9561 23.666C37.8835 23.7385 37.8259 23.8246 37.7866 23.9194C37.7473 24.0142 37.727 24.1157 37.727 24.2183C37.7269 24.3209 37.7471 24.4225 37.7863 24.5173C37.8255 24.6121 37.883 24.6983 37.9555 24.7709C38.028 24.8435 38.1141 24.9011 38.2089 24.9404C38.3037 24.9797 38.4052 24.9999 38.5078 25C39.6818 25.0013 40.8356 25.3054 41.8578 25.8828ZM45.5781 34.6781C45.4876 34.6297 45.3883 34.5996 45.2861 34.5897C45.1838 34.5797 45.0806 34.5901 44.9824 34.6201C44.8842 34.6502 44.7929 34.6993 44.7137 34.7648C44.6345 34.8303 44.5691 34.9107 44.5211 35.0015C44.2025 35.6015 43.7953 36.1501 43.3133 36.6289C42.8383 37.2726 41.3789 37.6297 41.9352 38.6289C42.7102 39.6179 43.7852 38.2562 44.418 37.7336C44.9797 37.0492 46.7602 35.4398 45.5781 34.6781ZM44.6063 27.2297C44.429 27.3367 44.3014 27.5096 44.2516 27.7106C44.2018 27.9116 44.2338 28.1242 44.3406 28.3015C44.9446 29.3076 45.2783 30.4527 45.3094 31.6258C45.3148 31.833 45.4023 32.0295 45.5526 32.1722C45.7029 32.3149 45.9038 32.3921 46.111 32.3867C46.3182 32.3813 46.5147 32.2938 46.6574 32.1435C46.8001 31.9932 46.8773 31.7923 46.8719 31.5851C46.8695 30.5633 46.143 26.4406 44.6063 27.2297ZM7.66721 9.73357C6.7469 10.1242 3.28049 12.5945 4.6719 13.6289C4.7575 13.6855 4.85343 13.7247 4.95418 13.7442C5.05494 13.7637 5.15855 13.7632 5.25911 13.7427C5.35967 13.7221 5.45519 13.682 5.54023 13.6245C5.62527 13.5671 5.69815 13.4934 5.75471 13.4078C6.39892 12.4325 7.2945 11.6492 8.3469 11.1406C8.53348 11.0505 8.67662 10.8899 8.74482 10.6942C8.81302 10.4986 8.8007 10.2838 8.71057 10.0972C8.62044 9.91066 8.45988 9.76752 8.26421 9.69932C8.06854 9.63112 7.85379 9.64344 7.66721 9.73357ZM3.13283 16.6133C3.05002 17.6351 3.55627 21.8109 5.14612 21.0953C5.23644 21.0465 5.31625 20.9804 5.381 20.9007C5.44576 20.821 5.49417 20.7294 5.52348 20.631C5.5528 20.5326 5.56243 20.4294 5.55184 20.3273C5.54124 20.2252 5.51063 20.1262 5.46174 20.0359C4.95384 19.0945 4.6878 18.0416 4.68752 16.9719C4.93674 15.7844 3.31252 15.3922 3.13283 16.6133ZM38.8742 38.6164C38.7516 38.6234 38.625 38.6234 38.4992 38.625H35.011C34.8038 38.625 34.605 38.7073 34.4585 38.8538C34.312 39.0003 34.2297 39.199 34.2297 39.4062C34.2297 39.6134 34.312 39.8121 34.4585 39.9587C34.605 40.1052 34.8038 40.1875 35.011 40.1875C35.3078 40.1844 38.7688 40.1992 38.9602 40.1758C39.1624 40.1583 39.3499 40.0628 39.4829 39.9095C39.616 39.7562 39.6841 39.5571 39.673 39.3544C39.6618 39.1517 39.5722 38.9614 39.4231 38.8236C39.274 38.6859 39.0772 38.6115 38.8742 38.6164ZM14.2891 24.2187C14.2891 24.4259 14.3714 24.6246 14.5179 24.7712C14.6644 24.9177 14.8631 25 15.0703 25H18.9766C19.1838 25 19.3825 24.9177 19.529 24.7712C19.6755 24.6246 19.7578 24.4259 19.7578 24.2187C19.7578 24.0115 19.6755 23.8128 19.529 23.6663C19.3825 23.5198 19.1838 23.4375 18.9766 23.4375H15.0703C14.8631 23.4375 14.6644 23.5198 14.5179 23.6663C14.3714 23.8128 14.2891 24.0115 14.2891 24.2187ZM23.5235 8.93748H19.6172C19.41 8.93748 19.2113 9.01979 19.0648 9.1663C18.9183 9.31281 18.836 9.51153 18.836 9.71873C18.836 9.92593 18.9183 10.1246 19.0648 10.2712C19.2113 10.4177 19.41 10.5 19.6172 10.5H23.5235C23.7307 10.5 23.9294 10.4177 24.0759 10.2712C24.2224 10.1246 24.3047 9.92593 24.3047 9.71873C24.3047 9.51153 24.2224 9.31281 24.0759 9.1663C23.9294 9.01979 23.7307 8.93748 23.5235 8.93748ZM22.1016 24.2187C22.1016 24.4259 22.1839 24.6246 22.3304 24.7712C22.4769 24.9177 22.6756 25 22.8828 25H26.7891C26.9963 25 27.195 24.9177 27.3415 24.7712C27.488 24.6246 27.5703 24.4259 27.5703 24.2187C27.5703 24.0115 27.488 23.8128 27.3415 23.6663C27.195 23.5198 26.9963 23.4375 26.7891 23.4375H22.8828C22.6756 23.4375 22.4769 23.5198 22.3304 23.6663C22.1839 23.8128 22.1016 24.0115 22.1016 24.2187ZM15.711 8.93748H11.8047C11.5975 8.93748 11.3988 9.01979 11.2523 9.1663C11.1058 9.31281 11.0235 9.51153 11.0235 9.71873C11.0235 9.92593 11.1058 10.1246 11.2523 10.2712C11.3988 10.4177 11.5975 10.5 11.8047 10.5H15.711C15.9182 10.5 16.1169 10.4177 16.2634 10.2712C16.4099 10.1246 16.4922 9.92593 16.4922 9.71873C16.4922 9.51153 16.4099 9.31281 16.2634 9.1663C16.1169 9.01979 15.9182 8.93748 15.711 8.93748Z" fill="#F9AC1A"/>
</svg>
